<?xml version="1.0" encoding="UTF-8"?>
<!DOCTYPE svg PUBLIC "-//W3C//DTD SVG 1.1//EN"
    "http://www.w3.org/Graphics/SVG/1.1/DTD/svg11.dtd"><svg xmlns="http://www.w3.org/2000/svg" viewBox="0.0 0.0 800.0 600.0" height="600.0000" font-size="1" stroke-opacity="1" width="800.0000" xmlns:xlink="http://www.w3.org/1999/xlink" stroke="rgb(0,0,0)" version="1.1"><defs></defs><g stroke-linecap="butt" fill="rgb(255,255,255)" stroke-miterlimit="10.0" stroke-width="0.0" fill-opacity="1.0" stroke-opacity="0.0" stroke-linejoin="bevel" stroke="rgb(0,0,0)"><path d="M 0.0000,0.0000 v 600.0000 h 800.0000 v -600.0000 Z"/></g><g stroke-linecap="butt" fill="rgb(0,0,0)" stroke-miterlimit="10.0" stroke-width="0.0" fill-opacity="1.0" stroke-opacity="0.0" stroke-linejoin="bevel" stroke="rgb(0,0,0)"><path d="M 354.8101,11.0678 ZM 358.4343,8.2957 l -0.1540,-0.6160 c -0.1437,-0.5031 -0.2772,-1.0678 -0.2772 -1.0678c -0.1335,-0.5647 -0.2669,-1.0883 -0.2669 -1.0883h -0.0411 c -0.1232,0.5339 -0.2515,1.0934 -0.2515 1.0934c -0.1283,0.5595 -0.2721,1.0626 -0.2721 1.0626l -0.1643,0.6160 h 1.4271 ZM 358.4343,8.2957 ZM 358.7423,9.4764 h -2.0431 l -0.4107,1.5914 h -1.5400 l 2.0945,-6.6940 h 1.8172 l 2.0945,6.6940 h -1.6016 ZM 360.6930,11.0678 ZM 361.0934,8.5216 c 0.0000,-0.6263 0.1797,-1.1191 0.1797 -1.1191c 0.1797,-0.4928 0.4723,-0.8368 0.4723 -0.8368c 0.2926,-0.3439 0.6776,-0.5287 0.6776 -0.5287c 0.3850,-0.1848 0.7854,-0.1848 0.7854 -0.1848c 0.4312,0.0000 0.7084,0.1437 0.7084 0.1437c 0.2772,0.1437 0.5441,0.3901 0.5441 0.3901l -0.0616,-0.7803 v -1.7351 h 1.5092 v 7.1971 h -1.2320 l -0.1027,-0.5031 h -0.0411 c -0.2669,0.2669 -0.6263,0.4466 -0.6263 0.4466c -0.3593,0.1797 -0.7290,0.1797 -0.7290 0.1797c -0.4723,-0.0000 -0.8573,-0.1848 -0.8573 -0.1848c -0.3850,-0.1848 -0.6571,-0.5287 -0.6571 -0.5287c -0.2721,-0.3439 -0.4209,-0.8368 -0.4209 -0.8368c -0.1489,-0.4928 -0.1489,-1.1191 -0.1489 -1.1191ZM 361.0934,8.5216 ZM 362.6437,8.5010 c 0.0000,0.7598 0.2413,1.1088 0.2413 1.1088c 0.2413,0.3491 0.6828,0.3491 0.6828 0.3491c 0.2464,0.0000 0.4466,-0.1027 0.4466 -0.1027c 0.2002,-0.1027 0.3850,-0.3593 0.3850 -0.3593v -2.0842 c -0.2053,-0.1848 -0.4209,-0.2567 -0.4209 -0.2567c -0.2156,-0.0719 -0.4209,-0.0719 -0.4209 -0.0719c -0.3593,-0.0000 -0.6366,0.3439 -0.6366 0.3439c -0.2772,0.3439 -0.2772,1.0729 -0.2772 1.0729ZM 366.5760,11.0678 ZM 366.6992,5.9754 h 1.5195 l 0.6571,2.4025 c 0.1027,0.3799 0.2002,0.7752 0.2002 0.7752c 0.0975,0.3953 0.2002,0.7957 0.2002 0.7957h 0.0411 c 0.0924,-0.4004 0.1899,-0.7957 0.1899 -0.7957c 0.0975,-0.3953 0.2002,-0.7752 0.2002 -0.7752l 0.6674,-2.4025 h 1.4476 l -1.6632,5.0924 h -1.7454 ZM 371.8634,11.0678 ZM 372.2331,8.5216 c 0.0000,-0.6160 0.2053,-1.1140 0.2053 -1.1140c 0.2053,-0.4979 0.5390,-0.8419 0.5390 -0.8419c 0.3337,-0.3439 0.7649,-0.5287 0.7649 -0.5287c 0.4312,-0.1848 0.8932,-0.1848 0.8932 -0.1848c 0.5441,0.0000 0.9497,0.1848 0.9497 0.1848c 0.4055,0.1848 0.6776,0.5133 0.6776 0.5133c 0.2721,0.3285 0.4055,0.7752 0.4055 0.7752c 0.1335,0.4466 0.1335,0.9702 0.1335 0.9702c 0.0000,0.2053 -0.0205,0.3747 -0.0205 0.3747c -0.0205,0.1694 -0.0411,0.2618 -0.0411 0.2618h -3.0493 c 0.1027,0.5852 0.4569,0.8470 0.4569 0.8470c 0.3542,0.2618 0.8676,0.2618 0.8676 0.2618c 0.5441,0.0000 1.0986,-0.3388 1.0986 -0.3388l 0.5031,0.9138 c -0.3901,0.2669 -0.8676,0.4209 -0.8676 0.4209c -0.4774,0.1540 -0.9394,0.1540 -0.9394 0.1540c -0.5441,-0.0000 -1.0164,-0.1797 -1.0164 -0.1797c -0.4723,-0.1797 -0.8214,-0.5236 -0.8214 -0.5236c -0.3491,-0.3439 -0.5441,-0.8368 -0.5441 -0.8368c -0.1951,-0.4928 -0.1951,-1.1294 -0.1951 -1.1294ZM 372.2331,8.5216 ZM 375.5185,7.9979 c 0.0000,-0.4415 -0.1951,-0.7187 -0.1951 -0.7187c -0.1951,-0.2772 -0.6571,-0.2772 -0.6571 -0.2772c -0.3593,-0.0000 -0.6314,0.2413 -0.6314 0.2413c -0.2721,0.2413 -0.3542,0.7546 -0.3542 0.7546h 1.8378 ZM 377.1817,11.0678 ZM 377.8491,5.9754 h 1.2320 l 0.1027,0.6468 h 0.0411 c 0.3285,-0.3080 0.7187,-0.5390 0.7187 -0.5390c 0.3901,-0.2310 0.9138,-0.2310 0.9138 -0.2310c 0.8316,0.0000 1.2064,0.5441 1.2064 0.5441c 0.3747,0.5441 0.3747,1.5092 0.3747 1.5092v 3.1622 h -1.5092 v -2.9671 c 0.0000,-0.5544 -0.1489,-0.7598 -0.1489 -0.7598c -0.1489,-0.2053 -0.4774,-0.2053 -0.4774 -0.2053c -0.2875,-0.0000 -0.4928,0.1283 -0.4928 0.1283c -0.2053,0.1283 -0.4517,0.3645 -0.4517 0.3645v 3.4394 h -1.5092 v -5.0924 ZM 383.0544,11.0678 ZM 383.9271,7.1561 h -0.6982 v -1.1191 l 0.7803,-0.0616 l 0.1745,-1.3552 h 1.2526 v 1.3552 h 1.2218 v 1.1807 h -1.2218 v 2.0431 c 0.0000,0.4312 0.1797,0.6211 0.1797 0.6211c 0.1797,0.1899 0.4774,0.1899 0.4774 0.1899c 0.1232,0.0000 0.2515,-0.0308 0.2515 -0.0308c 0.1283,-0.0308 0.2310,-0.0719 0.2310 -0.0719l 0.2361,1.0986 c -0.2053,0.0616 -0.4825,0.1232 -0.4825 0.1232c -0.2772,0.0616 -0.6468,0.0616 -0.6468 0.0616c -0.4723,-0.0000 -0.8060,-0.1437 -0.8060 -0.1437c -0.3337,-0.1437 -0.5441,-0.4004 -0.5441 -0.4004c -0.2105,-0.2567 -0.3080,-0.6211 -0.3080 -0.6211c -0.0975,-0.3645 -0.0975,-0.8060 -0.0975 -0.8060v -2.0637 ZM 389.1222,11.0678 ZM 389.4918,8.5216 c 0.0000,-0.6366 0.2053,-1.1345 0.2053 -1.1345c 0.2053,-0.4979 0.5493,-0.8368 0.5493 -0.8368c 0.3439,-0.3388 0.7957,-0.5185 0.7957 -0.5185c 0.4517,-0.1797 0.9343,-0.1797 0.9343 -0.1797c 0.4825,0.0000 0.9292,0.1797 0.9292 0.1797c 0.4466,0.1797 0.7906,0.5185 0.7906 0.5185c 0.3439,0.3388 0.5493,0.8368 0.5493 0.8368c 0.2053,0.4979 0.2053,1.1345 0.2053 1.1345c 0.0000,0.6366 -0.2053,1.1345 -0.2053 1.1345c -0.2053,0.4979 -0.5493,0.8368 -0.5493 0.8368c -0.3439,0.3388 -0.7906,0.5185 -0.7906 0.5185c -0.4466,0.1797 -0.9292,0.1797 -0.9292 0.1797c -0.4825,-0.0000 -0.9343,-0.1797 -0.9343 -0.1797c -0.4517,-0.1797 -0.7957,-0.5185 -0.7957 -0.5185c -0.3439,-0.3388 -0.5493,-0.8368 -0.5493 -0.8368c -0.2053,-0.4979 -0.2053,-1.1345 -0.2053 -1.1345ZM 389.4918,8.5216 ZM 391.0421,8.5216 c 0.0000,0.6674 0.2310,1.0575 0.2310 1.0575c 0.2310,0.3901 0.7033,0.3901 0.7033 0.3901c 0.4620,0.0000 0.6982,-0.3901 0.6982 -0.3901c 0.2361,-0.3901 0.2361,-1.0575 0.2361 -1.0575c 0.0000,-0.6674 -0.2361,-1.0575 -0.2361 -1.0575c -0.2361,-0.3901 -0.6982,-0.3901 -0.6982 -0.3901c -0.4723,-0.0000 -0.7033,0.3901 -0.7033 0.3901c -0.2310,0.3901 -0.2310,1.0575 -0.2310 1.0575ZM 394.7690,11.0678 ZM 398.3111,5.0411 c -0.2875,-0.1027 -0.5236,-0.1027 -0.5236 -0.1027c -0.2772,-0.0000 -0.4312,0.1694 -0.4312 0.1694c -0.1540,0.1694 -0.1540,0.5595 -0.1540 0.5595v 0.3080 h 0.9138 v 1.1807 h -0.9138 v 3.9117 h -1.5092 v -3.9117 h -0.6776 v -1.1191 l 0.6776,-0.0513 v -0.2772 c 0.0000,-0.4004 0.0975,-0.7598 0.0975 -0.7598c 0.0975,-0.3593 0.3234,-0.6263 0.3234 -0.6263c 0.2259,-0.2669 0.5852,-0.4209 0.5852 -0.4209c 0.3593,-0.1540 0.8727,-0.1540 0.8727 -0.1540c 0.3183,0.0000 0.5801,0.0616 0.5801 0.0616c 0.2618,0.0616 0.4363,0.1232 0.4363 0.1232ZM 400.4055,11.0678 ZM 400.7752,8.5216 c 0.0000,-0.6366 0.2156,-1.1345 0.2156 -1.1345c 0.2156,-0.4979 0.5801,-0.8368 0.5801 -0.8368c 0.3645,-0.3388 0.8470,-0.5185 0.8470 -0.5185c 0.4825,-0.1797 1.0062,-0.1797 1.0062 -0.1797c 0.4723,0.0000 0.8522,0.1591 0.8522 0.1591c 0.3799,0.1591 0.6366,0.4261 0.6366 0.4261l -0.6879,0.9343 c -0.3593,-0.2977 -0.7084,-0.2977 -0.7084 -0.2977c -0.5544,-0.0000 -0.8727,0.3901 -0.8727 0.3901c -0.3183,0.3901 -0.3183,1.0575 -0.3183 1.0575c 0.0000,0.6674 0.3234,1.0575 0.3234 1.0575c 0.3234,0.3901 0.8162,0.3901 0.8162 0.3901c 0.2772,0.0000 0.5031,-0.1129 0.5031 -0.1129c 0.2259,-0.1129 0.4107,-0.2567 0.4107 -0.2567l 0.6057,0.9548 c -0.3696,0.3285 -0.8214,0.4825 -0.8214 0.4825c -0.4517,0.1540 -0.8727,0.1540 -0.8727 0.1540c -0.5339,-0.0000 -0.9908,-0.1797 -0.9908 -0.1797c -0.4569,-0.1797 -0.7957,-0.5185 -0.7957 -0.5185c -0.3388,-0.3388 -0.5339,-0.8368 -0.5339 -0.8368c -0.1951,-0.4979 -0.1951,-1.1345 -0.1951 -1.1345ZM 404.9127,11.0678 ZM 405.2823,8.5216 c 0.0000,-0.6366 0.2053,-1.1345 0.2053 -1.1345c 0.2053,-0.4979 0.5493,-0.8368 0.5493 -0.8368c 0.3439,-0.3388 0.7957,-0.5185 0.7957 -0.5185c 0.4517,-0.1797 0.9343,-0.1797 0.9343 -0.1797c 0.4825,0.0000 0.9292,0.1797 0.9292 0.1797c 0.4466,0.1797 0.7906,0.5185 0.7906 0.5185c 0.3439,0.3388 0.5493,0.8368 0.5493 0.8368c 0.2053,0.4979 0.2053,1.1345 0.2053 1.1345c 0.0000,0.6366 -0.2053,1.1345 -0.2053 1.1345c -0.2053,0.4979 -0.5493,0.8368 -0.5493 0.8368c -0.3439,0.3388 -0.7906,0.5185 -0.7906 0.5185c -0.4466,0.1797 -0.9292,0.1797 -0.9292 0.1797c -0.4825,-0.0000 -0.9343,-0.1797 -0.9343 -0.1797c -0.4517,-0.1797 -0.7957,-0.5185 -0.7957 -0.5185c -0.3439,-0.3388 -0.5493,-0.8368 -0.5493 -0.8368c -0.2053,-0.4979 -0.2053,-1.1345 -0.2053 -1.1345ZM 405.2823,8.5216 ZM 406.8326,8.5216 c 0.0000,0.6674 0.2310,1.0575 0.2310 1.0575c 0.2310,0.3901 0.7033,0.3901 0.7033 0.3901c 0.4620,0.0000 0.6982,-0.3901 0.6982 -0.3901c 0.2361,-0.3901 0.2361,-1.0575 0.2361 -1.0575c 0.0000,-0.6674 -0.2361,-1.0575 -0.2361 -1.0575c -0.2361,-0.3901 -0.6982,-0.3901 -0.6982 -0.3901c -0.4723,-0.0000 -0.7033,0.3901 -0.7033 0.3901c -0.2310,0.3901 -0.2310,1.0575 -0.2310 1.0575ZM 410.6109,11.0678 ZM 411.0113,8.5216 c 0.0000,-0.6263 0.1797,-1.1191 0.1797 -1.1191c 0.1797,-0.4928 0.4723,-0.8368 0.4723 -0.8368c 0.2926,-0.3439 0.6776,-0.5287 0.6776 -0.5287c 0.3850,-0.1848 0.7854,-0.1848 0.7854 -0.1848c 0.4312,0.0000 0.7084,0.1437 0.7084 0.1437c 0.2772,0.1437 0.5441,0.3901 0.5441 0.3901l -0.0616,-0.7803 v -1.7351 h 1.5092 v 7.1971 h -1.2320 l -0.1027,-0.5031 h -0.0411 c -0.2669,0.2669 -0.6263,0.4466 -0.6263 0.4466c -0.3593,0.1797 -0.7290,0.1797 -0.7290 0.1797c -0.4723,-0.0000 -0.8573,-0.1848 -0.8573 -0.1848c -0.3850,-0.1848 -0.6571,-0.5287 -0.6571 -0.5287c -0.2721,-0.3439 -0.4209,-0.8368 -0.4209 -0.8368c -0.1489,-0.4928 -0.1489,-1.1191 -0.1489 -1.1191ZM 411.0113,8.5216 ZM 412.5616,8.5010 c 0.0000,0.7598 0.2413,1.1088 0.2413 1.1088c 0.2413,0.3491 0.6828,0.3491 0.6828 0.3491c 0.2464,0.0000 0.4466,-0.1027 0.4466 -0.1027c 0.2002,-0.1027 0.3850,-0.3593 0.3850 -0.3593v -2.0842 c -0.2053,-0.1848 -0.4209,-0.2567 -0.4209 -0.2567c -0.2156,-0.0719 -0.4209,-0.0719 -0.4209 -0.0719c -0.3593,-0.0000 -0.6366,0.3439 -0.6366 0.3439c -0.2772,0.3439 -0.2772,1.0729 -0.2772 1.0729ZM 416.4938,11.0678 ZM 416.8634,8.5216 c 0.0000,-0.6160 0.2053,-1.1140 0.2053 -1.1140c 0.2053,-0.4979 0.5390,-0.8419 0.5390 -0.8419c 0.3337,-0.3439 0.7649,-0.5287 0.7649 -0.5287c 0.4312,-0.1848 0.8932,-0.1848 0.8932 -0.1848c 0.5441,0.0000 0.9497,0.1848 0.9497 0.1848c 0.4055,0.1848 0.6776,0.5133 0.6776 0.5133c 0.2721,0.3285 0.4055,0.7752 0.4055 0.7752c 0.1335,0.4466 0.1335,0.9702 0.1335 0.9702c 0.0000,0.2053 -0.0205,0.3747 -0.0205 0.3747c -0.0205,0.1694 -0.0411,0.2618 -0.0411 0.2618h -3.0493 c 0.1027,0.5852 0.4569,0.8470 0.4569 0.8470c 0.3542,0.2618 0.8676,0.2618 0.8676 0.2618c 0.5441,0.0000 1.0986,-0.3388 1.0986 -0.3388l 0.5031,0.9138 c -0.3901,0.2669 -0.8676,0.4209 -0.8676 0.4209c -0.4774,0.1540 -0.9394,0.1540 -0.9394 0.1540c -0.5441,-0.0000 -1.0164,-0.1797 -1.0164 -0.1797c -0.4723,-0.1797 -0.8214,-0.5236 -0.8214 -0.5236c -0.3491,-0.3439 -0.5441,-0.8368 -0.5441 -0.8368c -0.1951,-0.4928 -0.1951,-1.1294 -0.1951 -1.1294ZM 416.8634,8.5216 ZM 420.1489,7.9979 c 0.0000,-0.4415 -0.1951,-0.7187 -0.1951 -0.7187c -0.1951,-0.2772 -0.6571,-0.2772 -0.6571 -0.2772c -0.3593,-0.0000 -0.6314,0.2413 -0.6314 0.2413c -0.2721,0.2413 -0.3542,0.7546 -0.3542 0.7546h 1.8378 ZM 423.9476,11.0678 ZM 424.3275,10.2053 c 0.6263,-0.5852 1.1448,-1.0934 1.1448 -1.0934c 0.5185,-0.5082 0.8932,-0.9548 0.8932 -0.9548c 0.3747,-0.4466 0.5852,-0.8316 0.5852 -0.8316c 0.2105,-0.3850 0.2105,-0.7341 0.2105 -0.7341c 0.0000,-0.4825 -0.2464,-0.7341 -0.2464 -0.7341c -0.2464,-0.2515 -0.6776,-0.2515 -0.6776 -0.2515c -0.3593,-0.0000 -0.6366,0.2002 -0.6366 0.2002c -0.2772,0.2002 -0.5236,0.4671 -0.5236 0.4671l -0.8214,-0.8111 c 0.4825,-0.5133 0.9856,-0.7752 0.9856 -0.7752c 0.5031,-0.2618 1.2012,-0.2618 1.2012 -0.2618c 0.4825,0.0000 0.8778,0.1489 0.8778 0.1489c 0.3953,0.1489 0.6828,0.4209 0.6828 0.4209c 0.2875,0.2721 0.4415,0.6520 0.4415 0.6520c 0.1540,0.3799 0.1540,0.8522 0.1540 0.8522c 0.0000,0.4107 -0.1745,0.8368 -0.1745 0.8368c -0.1745,0.4261 -0.4671,0.8522 -0.4671 0.8522c -0.2926,0.4261 -0.6674,0.8522 -0.6674 0.8522c -0.3747,0.4261 -0.7752,0.8368 -0.7752 0.8368c 0.2464,-0.0308 0.5493,-0.0565 0.5493 -0.0565c 0.3029,-0.0257 0.5390,-0.0257 0.5390 -0.0257h 1.3142 v 1.2731 h -4.5893 v -0.8624 ZM 429.3686,11.0678 ZM 432.0791,11.1910 c -0.5236,-0.0000 -0.9548,-0.2207 -0.9548 -0.2207c -0.4312,-0.2207 -0.7341,-0.6520 -0.7341 -0.6520c -0.3029,-0.4312 -0.4723,-1.0678 -0.4723 -1.0678c -0.1694,-0.6366 -0.1694,-1.4682 -0.1694 -1.4682c 0.0000,-0.8316 0.1694,-1.4579 0.1694 -1.4579c 0.1694,-0.6263 0.4723,-1.0524 0.4723 -1.0524c 0.3029,-0.4261 0.7341,-0.6366 0.7341 -0.6366c 0.4312,-0.2105 0.9548,-0.2105 0.9548 -0.2105c 0.5236,0.0000 0.9548,0.2105 0.9548 0.2105c 0.4312,0.2105 0.7341,0.6366 0.7341 0.6366c 0.3029,0.4261 0.4723,1.0524 0.4723 1.0524c 0.1694,0.6263 0.1694,1.4579 0.1694 1.4579c 0.0000,0.8316 -0.1694,1.4682 -0.1694 1.4682c -0.1694,0.6366 -0.4723,1.0678 -0.4723 1.0678c -0.3029,0.4312 -0.7341,0.6520 -0.7341 0.6520c -0.4312,0.2207 -0.9548,0.2207 -0.9548 0.2207ZM 432.0791,11.1910 ZM 432.0791,10.0205 c 0.1951,0.0000 0.3593,-0.0975 0.3593 -0.0975c 0.1643,-0.0975 0.2875,-0.3542 0.2875 -0.3542c 0.1232,-0.2567 0.1899,-0.6879 0.1899 -0.6879c 0.0667,-0.4312 0.0667,-1.0986 0.0667 -1.0986c 0.0000,-0.6674 -0.0667,-1.0934 -0.0667 -1.0934c -0.0667,-0.4261 -0.1899,-0.6674 -0.1899 -0.6674c -0.1232,-0.2413 -0.2875,-0.3337 -0.2875 -0.3337c -0.1643,-0.0924 -0.3593,-0.0924 -0.3593 -0.0924c -0.1848,-0.0000 -0.3491,0.0924 -0.3491 0.0924c -0.1643,0.0924 -0.2875,0.3337 -0.2875 0.3337c -0.1232,0.2413 -0.1951,0.6674 -0.1951 0.6674c -0.0719,0.4261 -0.0719,1.0934 -0.0719 1.0934c 0.0000,0.6674 0.0719,1.0986 0.0719 1.0986c 0.0719,0.4312 0.1951,0.6879 0.1951 0.6879c 0.1232,0.2567 0.2875,0.3542 0.2875 0.3542c 0.1643,0.0975 0.3491,0.0975 0.3491 0.0975ZM 434.7895,11.0678 ZM 435.1694,10.2053 c 0.6263,-0.5852 1.1448,-1.0934 1.1448 -1.0934c 0.5185,-0.5082 0.8932,-0.9548 0.8932 -0.9548c 0.3747,-0.4466 0.5852,-0.8316 0.5852 -0.8316c 0.2105,-0.3850 0.2105,-0.7341 0.2105 -0.7341c 0.0000,-0.4825 -0.2464,-0.7341 -0.2464 -0.7341c -0.2464,-0.2515 -0.6776,-0.2515 -0.6776 -0.2515c -0.3593,-0.0000 -0.6366,0.2002 -0.6366 0.2002c -0.2772,0.2002 -0.5236,0.4671 -0.5236 0.4671l -0.8214,-0.8111 c 0.4825,-0.5133 0.9856,-0.7752 0.9856 -0.7752c 0.5031,-0.2618 1.2012,-0.2618 1.2012 -0.2618c 0.4825,0.0000 0.8778,0.1489 0.8778 0.1489c 0.3953,0.1489 0.6828,0.4209 0.6828 0.4209c 0.2875,0.2721 0.4415,0.6520 0.4415 0.6520c 0.1540,0.3799 0.1540,0.8522 0.1540 0.8522c 0.0000,0.4107 -0.1745,0.8368 -0.1745 0.8368c -0.1745,0.4261 -0.4671,0.8522 -0.4671 0.8522c -0.2926,0.4261 -0.6674,0.8522 -0.6674 0.8522c -0.3747,0.4261 -0.7752,0.8368 -0.7752 0.8368c 0.2464,-0.0308 0.5493,-0.0565 0.5493 -0.0565c 0.3029,-0.0257 0.5390,-0.0257 0.5390 -0.0257h 1.3142 v 1.2731 h -4.5893 v -0.8624 ZM 440.2105,11.0678 ZM 441.1345,9.3121 c 0.2977,0.2875 0.6520,0.4723 0.6520 0.4723c 0.3542,0.1848 0.7752,0.1848 0.7752 0.1848c 0.4825,0.0000 0.7700,-0.2002 0.7700 -0.2002c 0.2875,-0.2002 0.2875,-0.5698 0.2875 -0.5698c 0.0000,-0.2156 -0.0770,-0.3901 -0.0770 -0.3901c -0.0770,-0.1745 -0.2721,-0.2926 -0.2721 -0.2926c -0.1951,-0.1181 -0.5339,-0.1848 -0.5339 -0.1848c -0.3388,-0.0667 -0.8727,-0.0667 -0.8727 -0.0667v -1.0678 c 0.4415,0.0000 0.7341,-0.0616 0.7341 -0.0616c 0.2926,-0.0616 0.4723,-0.1797 0.4723 -0.1797c 0.1797,-0.1181 0.2567,-0.2772 0.2567 -0.2772c 0.0770,-0.1591 0.0770,-0.3542 0.0770 -0.3542c 0.0000,-0.3388 -0.2053,-0.5287 -0.2053 -0.5287c -0.2053,-0.1899 -0.5955,-0.1899 -0.5955 -0.1899c -0.3491,-0.0000 -0.6314,0.1540 -0.6314 0.1540c -0.2823,0.1540 -0.5903,0.4209 -0.5903 0.4209l -0.7598,-0.9240 c 0.4517,-0.3901 0.9497,-0.6109 0.9497 -0.6109c 0.4979,-0.2207 1.1037,-0.2207 1.1037 -0.2207c 0.5031,0.0000 0.9189,0.1181 0.9189 0.1181c 0.4158,0.1181 0.7084,0.3491 0.7084 0.3491c 0.2926,0.2310 0.4569,0.5595 0.4569 0.5595c 0.1643,0.3285 0.1643,0.7598 0.1643 0.7598c 0.0000,0.5133 -0.2823,0.8676 -0.2823 0.8676c -0.2823,0.3542 -0.8060,0.5801 -0.8060 0.5801v 0.0411 c 0.5647,0.1643 0.9292,0.5595 0.9292 0.5595c 0.3645,0.3953 0.3645,1.0318 0.3645 1.0318c 0.0000,0.4517 -0.1951,0.8060 -0.1951 0.8060c -0.1951,0.3542 -0.5236,0.5955 -0.5236 0.5955c -0.3285,0.2413 -0.7700,0.3696 -0.7700 0.3696c -0.4415,0.1283 -0.9343,0.1283 -0.9343 0.1283c -0.8008,-0.0000 -1.3552,-0.2515 -1.3552 -0.2515c -0.5544,-0.2515 -0.9138,-0.6725 -0.9138 -0.6725Z"/></g><g stroke-linecap="butt" fill="rgb(0,0,0)" stroke-dashoffset="0.0" stroke-dasharray="4.999999999999998,4.999999999999998" stroke-miterlimit="10.0" stroke-width="0.9999999999999997" fill-opacity="0.0" stroke-opacity="1.0" stroke-linejoin="miter" stroke="rgb(211,211,211)"><path d="M 29.8004,550.0000 h 747.2269 "/></g><g stroke-linecap="butt" fill="rgb(0,0,0)" stroke-dashoffset="0.0" stroke-dasharray="4.999999999999998,4.999999999999998" stroke-miterlimit="10.0" stroke-width="0.9999999999999997" fill-opacity="0.0" stroke-opacity="1.0" stroke-linejoin="miter" stroke="rgb(211,211,211)"><path d="M 29.8004,420.0000 h 747.2269 "/></g><g stroke-linecap="butt" fill="rgb(0,0,0)" stroke-dashoffset="0.0" stroke-dasharray="4.999999999999998,4.999999999999998" stroke-miterlimit="10.0" stroke-width="0.9999999999999997" fill-opacity="0.0" stroke-opacity="1.0" stroke-linejoin="miter" stroke="rgb(211,211,211)"><path d="M 29.8004,290.0000 h 747.2269 "/></g><g stroke-linecap="butt" fill="rgb(0,0,0)" stroke-dashoffset="0.0" stroke-dasharray="4.999999999999998,4.999999999999998" stroke-miterlimit="10.0" stroke-width="0.9999999999999997" fill-opacity="0.0" stroke-opacity="1.0" stroke-linejoin="miter" stroke="rgb(211,211,211)"><path d="M 29.8004,160.0000 h 747.2269 "/></g><g stroke-linecap="butt" fill="rgb(0,0,0)" stroke-dashoffset="0.0" stroke-dasharray="4.999999999999998,4.999999999999998" stroke-miterlimit="10.0" stroke-width="0.9999999999999997" fill-opacity="0.0" stroke-opacity="1.0" stroke-linejoin="miter" stroke="rgb(211,211,211)"><path d="M 29.8004,30.0000 h 747.2269 "/></g><g stroke-linecap="butt" fill="rgb(0,0,255)" stroke-miterlimit="10.0" stroke-width="0.0" fill-opacity="1.0" stroke-opacity="0.0" stroke-linejoin="bevel" stroke="rgb(0,0,0)"><defs><clipPath id="myClip1"><path d="M 29.8004,30.0000 v 520.0000 h 747.2269 v -520.0000 Z"/></clipPath></defs><g clip-path="url(#myClip1)"><path d="M 44.8004,550.0000 v -147.3907 h 156.8067 v 147.3907 Z"/></g></g><g stroke-linecap="butt" fill="rgb(0,0,0)" stroke-miterlimit="10.0" stroke-width="0.9999999999999997" fill-opacity="0.0" stroke-opacity="1.0" stroke-linejoin="miter" stroke="rgb(0,0,0)"><defs><clipPath id="myClip2"><path d="M 29.8004,30.0000 v 520.0000 h 747.2269 v -520.0000 Z"/></clipPath></defs><g clip-path="url(#myClip2)"><path d="M 44.8004,550.0000 v -147.3907 h 156.8067 v 147.3907 Z"/></g></g><g stroke-linecap="butt" fill="rgb(0,0,255)" stroke-miterlimit="10.0" stroke-width="0.0" fill-opacity="1.0" stroke-opacity="0.0" stroke-linejoin="bevel" stroke="rgb(0,0,0)"><defs><clipPath id="myClip3"><path d="M 29.8004,30.0000 v 520.0000 h 747.2269 v -520.0000 Z"/></clipPath></defs><g clip-path="url(#myClip3)"><path d="M 231.6071,550.0000 v -129.5982 h 156.8067 v 129.5982 Z"/></g></g><g stroke-linecap="butt" fill="rgb(0,0,0)" stroke-miterlimit="10.0" stroke-width="0.9999999999999997" fill-opacity="0.0" stroke-opacity="1.0" stroke-linejoin="miter" stroke="rgb(0,0,0)"><defs><clipPath id="myClip4"><path d="M 29.8004,30.0000 v 520.0000 h 747.2269 v -520.0000 Z"/></clipPath></defs><g clip-path="url(#myClip4)"><path d="M 231.6071,550.0000 v -129.5982 h 156.8067 v 129.5982 Z"/></g></g><g stroke-linecap="butt" fill="rgb(0,0,255)" stroke-miterlimit="10.0" stroke-width="0.0" fill-opacity="1.0" stroke-opacity="0.0" stroke-linejoin="bevel" stroke="rgb(0,0,0)"><defs><clipPath id="myClip5"><path d="M 29.8004,30.0000 v 520.0000 h 747.2269 v -520.0000 Z"/></clipPath></defs><g clip-path="url(#myClip5)"><path d="M 418.4139,550.0000 v -352.7576 h 156.8067 v 352.7576 Z"/></g></g><g stroke-linecap="butt" fill="rgb(0,0,0)" stroke-miterlimit="10.0" stroke-width="0.9999999999999997" fill-opacity="0.0" stroke-opacity="1.0" stroke-linejoin="miter" stroke="rgb(0,0,0)"><defs><clipPath id="myClip6"><path d="M 29.8004,30.0000 v 520.0000 h 747.2269 v -520.0000 Z"/></clipPath></defs><g clip-path="url(#myClip6)"><path d="M 418.4139,550.0000 v -352.7576 h 156.8067 v 352.7576 Z"/></g></g><g stroke-linecap="butt" fill="rgb(0,0,255)" stroke-miterlimit="10.0" stroke-width="0.0" fill-opacity="1.0" stroke-opacity="0.0" stroke-linejoin="bevel" stroke="rgb(0,0,0)"><defs><clipPath id="myClip7"><path d="M 29.8004,30.0000 v 520.0000 h 747.2269 v -520.0000 Z"/></clipPath></defs><g clip-path="url(#myClip7)"><path d="M 605.2206,550.0000 v -440.8742 h 156.8067 v 440.8742 Z"/></g></g><g stroke-linecap="butt" fill="rgb(0,0,0)" stroke-miterlimit="10.0" stroke-width="0.9999999999999997" fill-opacity="0.0" stroke-opacity="1.0" stroke-linejoin="miter" stroke="rgb(0,0,0)"><defs><clipPath id="myClip8"><path d="M 29.8004,30.0000 v 520.0000 h 747.2269 v -520.0000 Z"/></clipPath></defs><g clip-path="url(#myClip8)"><path d="M 605.2206,550.0000 v -440.8742 h 156.8067 v 440.8742 Z"/></g></g><g stroke-linecap="square" fill="rgb(0,0,0)" stroke-miterlimit="10.0" stroke-width="0.9999999999999997" fill-opacity="0.0" stroke-opacity="1.0" stroke-linejoin="miter" stroke="rgb(0,0,0)"><path d="M 29.8004,550.0000 v -520.0000 "/></g><g stroke-linecap="butt" fill="rgb(0,0,0)" stroke-miterlimit="10.0" stroke-width="0.9999999999999997" fill-opacity="0.0" stroke-opacity="1.0" stroke-linejoin="miter" stroke="rgb(0,0,0)"><path d="M 29.8004,550.0000 h 2.0000 "/></g><g stroke-linecap="butt" fill="rgb(0,0,0)" stroke-miterlimit="10.0" stroke-width="0.9999999999999997" fill-opacity="0.0" stroke-opacity="1.0" stroke-linejoin="miter" stroke="rgb(0,0,0)"><path d="M 29.8004,537.0000 h 2.0000 "/></g><g stroke-linecap="butt" fill="rgb(0,0,0)" stroke-miterlimit="10.0" stroke-width="0.9999999999999997" fill-opacity="0.0" stroke-opacity="1.0" stroke-linejoin="miter" stroke="rgb(0,0,0)"><path d="M 29.8004,524.0000 h 2.0000 "/></g><g stroke-linecap="butt" fill="rgb(0,0,0)" stroke-miterlimit="10.0" stroke-width="0.9999999999999997" fill-opacity="0.0" stroke-opacity="1.0" stroke-linejoin="miter" stroke="rgb(0,0,0)"><path d="M 29.8004,511.0000 h 2.0000 "/></g><g stroke-linecap="butt" fill="rgb(0,0,0)" stroke-miterlimit="10.0" stroke-width="0.9999999999999997" fill-opacity="0.0" stroke-opacity="1.0" stroke-linejoin="miter" stroke="rgb(0,0,0)"><path d="M 29.8004,498.0000 h 2.0000 "/></g><g stroke-linecap="butt" fill="rgb(0,0,0)" stroke-miterlimit="10.0" stroke-width="0.9999999999999997" fill-opacity="0.0" stroke-opacity="1.0" stroke-linejoin="miter" stroke="rgb(0,0,0)"><path d="M 29.8004,485.0000 h 2.0000 "/></g><g stroke-linecap="butt" fill="rgb(0,0,0)" stroke-miterlimit="10.0" stroke-width="0.9999999999999997" fill-opacity="0.0" stroke-opacity="1.0" stroke-linejoin="miter" stroke="rgb(0,0,0)"><path d="M 29.8004,472.0000 h 2.0000 "/></g><g stroke-linecap="butt" fill="rgb(0,0,0)" stroke-miterlimit="10.0" stroke-width="0.9999999999999997" fill-opacity="0.0" stroke-opacity="1.0" stroke-linejoin="miter" stroke="rgb(0,0,0)"><path d="M 29.8004,459.0000 h 2.0000 "/></g><g stroke-linecap="butt" fill="rgb(0,0,0)" stroke-miterlimit="10.0" stroke-width="0.9999999999999997" fill-opacity="0.0" stroke-opacity="1.0" stroke-linejoin="miter" stroke="rgb(0,0,0)"><path d="M 29.8004,446.0000 h 2.0000 "/></g><g stroke-linecap="butt" fill="rgb(0,0,0)" stroke-miterlimit="10.0" stroke-width="0.9999999999999997" fill-opacity="0.0" stroke-opacity="1.0" stroke-linejoin="miter" stroke="rgb(0,0,0)"><path d="M 29.8004,433.0000 h 2.0000 "/></g><g stroke-linecap="butt" fill="rgb(0,0,0)" stroke-miterlimit="10.0" stroke-width="0.9999999999999997" fill-opacity="0.0" stroke-opacity="1.0" stroke-linejoin="miter" stroke="rgb(0,0,0)"><path d="M 29.8004,420.0000 h 2.0000 "/></g><g stroke-linecap="butt" fill="rgb(0,0,0)" stroke-miterlimit="10.0" stroke-width="0.9999999999999997" fill-opacity="0.0" stroke-opacity="1.0" stroke-linejoin="miter" stroke="rgb(0,0,0)"><path d="M 29.8004,407.0000 h 2.0000 "/></g><g stroke-linecap="butt" fill="rgb(0,0,0)" stroke-miterlimit="10.0" stroke-width="0.9999999999999997" fill-opacity="0.0" stroke-opacity="1.0" stroke-linejoin="miter" stroke="rgb(0,0,0)"><path d="M 29.8004,394.0000 h 2.0000 "/></g><g stroke-linecap="butt" fill="rgb(0,0,0)" stroke-miterlimit="10.0" stroke-width="0.9999999999999997" fill-opacity="0.0" stroke-opacity="1.0" stroke-linejoin="miter" stroke="rgb(0,0,0)"><path d="M 29.8004,381.0000 h 2.0000 "/></g><g stroke-linecap="butt" fill="rgb(0,0,0)" stroke-miterlimit="10.0" stroke-width="0.9999999999999997" fill-opacity="0.0" stroke-opacity="1.0" stroke-linejoin="miter" stroke="rgb(0,0,0)"><path d="M 29.8004,368.0000 h 2.0000 "/></g><g stroke-linecap="butt" fill="rgb(0,0,0)" stroke-miterlimit="10.0" stroke-width="0.9999999999999997" fill-opacity="0.0" stroke-opacity="1.0" stroke-linejoin="miter" stroke="rgb(0,0,0)"><path d="M 29.8004,355.0000 h 2.0000 "/></g><g stroke-linecap="butt" fill="rgb(0,0,0)" stroke-miterlimit="10.0" stroke-width="0.9999999999999997" fill-opacity="0.0" stroke-opacity="1.0" stroke-linejoin="miter" stroke="rgb(0,0,0)"><path d="M 29.8004,342.0000 h 2.0000 "/></g><g stroke-linecap="butt" fill="rgb(0,0,0)" stroke-miterlimit="10.0" stroke-width="0.9999999999999997" fill-opacity="0.0" stroke-opacity="1.0" stroke-linejoin="miter" stroke="rgb(0,0,0)"><path d="M 29.8004,329.0000 h 2.0000 "/></g><g stroke-linecap="butt" fill="rgb(0,0,0)" stroke-miterlimit="10.0" stroke-width="0.9999999999999997" fill-opacity="0.0" stroke-opacity="1.0" stroke-linejoin="miter" stroke="rgb(0,0,0)"><path d="M 29.8004,316.0000 h 2.0000 "/></g><g stroke-linecap="butt" fill="rgb(0,0,0)" stroke-miterlimit="10.0" stroke-width="0.9999999999999997" fill-opacity="0.0" stroke-opacity="1.0" stroke-linejoin="miter" stroke="rgb(0,0,0)"><path d="M 29.8004,303.0000 h 2.0000 "/></g><g stroke-linecap="butt" fill="rgb(0,0,0)" stroke-miterlimit="10.0" stroke-width="0.9999999999999997" fill-opacity="0.0" stroke-opacity="1.0" stroke-linejoin="miter" stroke="rgb(0,0,0)"><path d="M 29.8004,290.0000 h 2.0000 "/></g><g stroke-linecap="butt" fill="rgb(0,0,0)" stroke-miterlimit="10.0" stroke-width="0.9999999999999997" fill-opacity="0.0" stroke-opacity="1.0" stroke-linejoin="miter" stroke="rgb(0,0,0)"><path d="M 29.8004,277.0000 h 2.0000 "/></g><g stroke-linecap="butt" fill="rgb(0,0,0)" stroke-miterlimit="10.0" stroke-width="0.9999999999999997" fill-opacity="0.0" stroke-opacity="1.0" stroke-linejoin="miter" stroke="rgb(0,0,0)"><path d="M 29.8004,264.0000 h 2.0000 "/></g><g stroke-linecap="butt" fill="rgb(0,0,0)" stroke-miterlimit="10.0" stroke-width="0.9999999999999997" fill-opacity="0.0" stroke-opacity="1.0" stroke-linejoin="miter" stroke="rgb(0,0,0)"><path d="M 29.8004,251.0000 h 2.0000 "/></g><g stroke-linecap="butt" fill="rgb(0,0,0)" stroke-miterlimit="10.0" stroke-width="0.9999999999999997" fill-opacity="0.0" stroke-opacity="1.0" stroke-linejoin="miter" stroke="rgb(0,0,0)"><path d="M 29.8004,238.0000 h 2.0000 "/></g><g stroke-linecap="butt" fill="rgb(0,0,0)" stroke-miterlimit="10.0" stroke-width="0.9999999999999997" fill-opacity="0.0" stroke-opacity="1.0" stroke-linejoin="miter" stroke="rgb(0,0,0)"><path d="M 29.8004,225.0000 h 2.0000 "/></g><g stroke-linecap="butt" fill="rgb(0,0,0)" stroke-miterlimit="10.0" stroke-width="0.9999999999999997" fill-opacity="0.0" stroke-opacity="1.0" stroke-linejoin="miter" stroke="rgb(0,0,0)"><path d="M 29.8004,212.0000 h 2.0000 "/></g><g stroke-linecap="butt" fill="rgb(0,0,0)" stroke-miterlimit="10.0" stroke-width="0.9999999999999997" fill-opacity="0.0" stroke-opacity="1.0" stroke-linejoin="miter" stroke="rgb(0,0,0)"><path d="M 29.8004,199.0000 h 2.0000 "/></g><g stroke-linecap="butt" fill="rgb(0,0,0)" stroke-miterlimit="10.0" stroke-width="0.9999999999999997" fill-opacity="0.0" stroke-opacity="1.0" stroke-linejoin="miter" stroke="rgb(0,0,0)"><path d="M 29.8004,186.0000 h 2.0000 "/></g><g stroke-linecap="butt" fill="rgb(0,0,0)" stroke-miterlimit="10.0" stroke-width="0.9999999999999997" fill-opacity="0.0" stroke-opacity="1.0" stroke-linejoin="miter" stroke="rgb(0,0,0)"><path d="M 29.8004,173.0000 h 2.0000 "/></g><g stroke-linecap="butt" fill="rgb(0,0,0)" stroke-miterlimit="10.0" stroke-width="0.9999999999999997" fill-opacity="0.0" stroke-opacity="1.0" stroke-linejoin="miter" stroke="rgb(0,0,0)"><path d="M 29.8004,160.0000 h 2.0000 "/></g><g stroke-linecap="butt" fill="rgb(0,0,0)" stroke-miterlimit="10.0" stroke-width="0.9999999999999997" fill-opacity="0.0" stroke-opacity="1.0" stroke-linejoin="miter" stroke="rgb(0,0,0)"><path d="M 29.8004,147.0000 h 2.0000 "/></g><g stroke-linecap="butt" fill="rgb(0,0,0)" stroke-miterlimit="10.0" stroke-width="0.9999999999999997" fill-opacity="0.0" stroke-opacity="1.0" stroke-linejoin="miter" stroke="rgb(0,0,0)"><path d="M 29.8004,134.0000 h 2.0000 "/></g><g stroke-linecap="butt" fill="rgb(0,0,0)" stroke-miterlimit="10.0" stroke-width="0.9999999999999997" fill-opacity="0.0" stroke-opacity="1.0" stroke-linejoin="miter" stroke="rgb(0,0,0)"><path d="M 29.8004,121.0000 h 2.0000 "/></g><g stroke-linecap="butt" fill="rgb(0,0,0)" stroke-miterlimit="10.0" stroke-width="0.9999999999999997" fill-opacity="0.0" stroke-opacity="1.0" stroke-linejoin="miter" stroke="rgb(0,0,0)"><path d="M 29.8004,108.0000 h 2.0000 "/></g><g stroke-linecap="butt" fill="rgb(0,0,0)" stroke-miterlimit="10.0" stroke-width="0.9999999999999997" fill-opacity="0.0" stroke-opacity="1.0" stroke-linejoin="miter" stroke="rgb(0,0,0)"><path d="M 29.8004,95.0000 h 2.0000 "/></g><g stroke-linecap="butt" fill="rgb(0,0,0)" stroke-miterlimit="10.0" stroke-width="0.9999999999999997" fill-opacity="0.0" stroke-opacity="1.0" stroke-linejoin="miter" stroke="rgb(0,0,0)"><path d="M 29.8004,82.0000 h 2.0000 "/></g><g stroke-linecap="butt" fill="rgb(0,0,0)" stroke-miterlimit="10.0" stroke-width="0.9999999999999997" fill-opacity="0.0" stroke-opacity="1.0" stroke-linejoin="miter" stroke="rgb(0,0,0)"><path d="M 29.8004,69.0000 h 2.0000 "/></g><g stroke-linecap="butt" fill="rgb(0,0,0)" stroke-miterlimit="10.0" stroke-width="0.9999999999999997" fill-opacity="0.0" stroke-opacity="1.0" stroke-linejoin="miter" stroke="rgb(0,0,0)"><path d="M 29.8004,56.0000 h 2.0000 "/></g><g stroke-linecap="butt" fill="rgb(0,0,0)" stroke-miterlimit="10.0" stroke-width="0.9999999999999997" fill-opacity="0.0" stroke-opacity="1.0" stroke-linejoin="miter" stroke="rgb(0,0,0)"><path d="M 29.8004,43.0000 h 2.0000 "/></g><g stroke-linecap="butt" fill="rgb(0,0,0)" stroke-miterlimit="10.0" stroke-width="0.9999999999999997" fill-opacity="0.0" stroke-opacity="1.0" stroke-linejoin="miter" stroke="rgb(0,0,0)"><path d="M 29.8004,30.0000 h 2.0000 "/></g><g stroke-linecap="butt" fill="rgb(0,0,0)" stroke-miterlimit="10.0" stroke-width="0.9999999999999997" fill-opacity="0.0" stroke-opacity="1.0" stroke-linejoin="miter" stroke="rgb(0,0,0)"><path d="M 29.8004,550.0000 h 5.0000 "/></g><g stroke-linecap="butt" fill="rgb(0,0,0)" stroke-miterlimit="10.0" stroke-width="0.9999999999999997" fill-opacity="0.0" stroke-opacity="1.0" stroke-linejoin="miter" stroke="rgb(0,0,0)"><path d="M 29.8004,420.0000 h 5.0000 "/></g><g stroke-linecap="butt" fill="rgb(0,0,0)" stroke-miterlimit="10.0" stroke-width="0.9999999999999997" fill-opacity="0.0" stroke-opacity="1.0" stroke-linejoin="miter" stroke="rgb(0,0,0)"><path d="M 29.8004,290.0000 h 5.0000 "/></g><g stroke-linecap="butt" fill="rgb(0,0,0)" stroke-miterlimit="10.0" stroke-width="0.9999999999999997" fill-opacity="0.0" stroke-opacity="1.0" stroke-linejoin="miter" stroke="rgb(0,0,0)"><path d="M 29.8004,160.0000 h 5.0000 "/></g><g stroke-linecap="butt" fill="rgb(0,0,0)" stroke-miterlimit="10.0" stroke-width="0.9999999999999997" fill-opacity="0.0" stroke-opacity="1.0" stroke-linejoin="miter" stroke="rgb(0,0,0)"><path d="M 29.8004,30.0000 h 5.0000 "/></g><g stroke-linecap="butt" fill="rgb(0,0,0)" stroke-miterlimit="10.0" stroke-width="0.0" fill-opacity="1.0" stroke-opacity="0.0" stroke-linejoin="bevel" stroke="rgb(0,0,0)"><path d="M 15.5042,553.4454 ZM 18.1197,553.5714 c -1.0189,-0.0000 -1.5861,-0.9034 -1.5861 -0.9034c -0.5672,-0.9034 -0.5672,-2.5945 -0.5672 -2.5945c 0.0000,-1.6912 0.5672,-2.5735 0.5672 -2.5735c 0.5672,-0.8824 1.5861,-0.8824 1.5861 -0.8824c 1.0084,0.0000 1.5756,0.8824 1.5756 0.8824c 0.5672,0.8824 0.5672,2.5735 0.5672 2.5735c 0.0000,1.6912 -0.5672,2.5945 -0.5672 2.5945c -0.5672,0.9034 -1.5756,0.9034 -1.5756 0.9034ZM 18.1197,553.5714 ZM 18.1197,552.8782 c 0.2941,0.0000 0.5305,-0.1628 0.5305 -0.1628c 0.2363,-0.1628 0.4097,-0.5042 0.4097 -0.5042c 0.1733,-0.3414 0.2679,-0.8718 0.2679 -0.8718c 0.0945,-0.5305 0.0945,-1.2658 0.0945 -1.2658c 0.0000,-0.7353 -0.0945,-1.2605 -0.0945 -1.2605c -0.0945,-0.5252 -0.2679,-0.8561 -0.2679 -0.8561c -0.1733,-0.3309 -0.4097,-0.4884 -0.4097 -0.4884c -0.2363,-0.1576 -0.5305,-0.1576 -0.5305 -0.1576c -0.2941,-0.0000 -0.5357,0.1576 -0.5357 0.1576c -0.2416,0.1576 -0.4149,0.4884 -0.4149 0.4884c -0.1733,0.3309 -0.2679,0.8561 -0.2679 0.8561c -0.0945,0.5252 -0.0945,1.2605 -0.0945 1.2605c 0.0000,1.4706 0.3624,2.1376 0.3624 2.1376c 0.3624,0.6670 0.9506,0.6670 0.9506 0.6670Z"/></g><g stroke-linecap="butt" fill="rgb(0,0,0)" stroke-miterlimit="10.0" stroke-width="0.0" fill-opacity="1.0" stroke-opacity="0.0" stroke-linejoin="bevel" stroke="rgb(0,0,0)"><path d="M 10.6513,423.4454 ZM 11.4811,422.7311 h 1.5336 v -4.9370 h -1.2185 v -0.5567 c 0.4622,-0.0840 0.8036,-0.2048 0.8036 -0.2048c 0.3414,-0.1208 0.6145,-0.2889 0.6145 -0.2889h 0.6618 v 5.9874 h 1.3866 v 0.7143 h -3.7815 v -0.7143 ZM 15.8718,423.4454 ZM 18.4874,423.5714 c -1.0189,-0.0000 -1.5861,-0.9034 -1.5861 -0.9034c -0.5672,-0.9034 -0.5672,-2.5945 -0.5672 -2.5945c 0.0000,-1.6912 0.5672,-2.5735 0.5672 -2.5735c 0.5672,-0.8824 1.5861,-0.8824 1.5861 -0.8824c 1.0084,0.0000 1.5756,0.8824 1.5756 0.8824c 0.5672,0.8824 0.5672,2.5735 0.5672 2.5735c 0.0000,1.6912 -0.5672,2.5945 -0.5672 2.5945c -0.5672,0.9034 -1.5756,0.9034 -1.5756 0.9034ZM 18.4874,423.5714 ZM 18.4874,422.8782 c 0.2941,0.0000 0.5305,-0.1628 0.5305 -0.1628c 0.2363,-0.1628 0.4097,-0.5042 0.4097 -0.5042c 0.1733,-0.3414 0.2679,-0.8718 0.2679 -0.8718c 0.0945,-0.5305 0.0945,-1.2658 0.0945 -1.2658c 0.0000,-0.7353 -0.0945,-1.2605 -0.0945 -1.2605c -0.0945,-0.5252 -0.2679,-0.8561 -0.2679 -0.8561c -0.1733,-0.3309 -0.4097,-0.4884 -0.4097 -0.4884c -0.2363,-0.1576 -0.5305,-0.1576 -0.5305 -0.1576c -0.2941,-0.0000 -0.5357,0.1576 -0.5357 0.1576c -0.2416,0.1576 -0.4149,0.4884 -0.4149 0.4884c -0.1733,0.3309 -0.2679,0.8561 -0.2679 0.8561c -0.0945,0.5252 -0.0945,1.2605 -0.0945 1.2605c 0.0000,1.4706 0.3624,2.1376 0.3624 2.1376c 0.3624,0.6670 0.9506,0.6670 0.9506 0.6670Z"/></g><g stroke-linecap="butt" fill="rgb(0,0,0)" stroke-miterlimit="10.0" stroke-width="0.0" fill-opacity="1.0" stroke-opacity="0.0" stroke-linejoin="bevel" stroke="rgb(0,0,0)"><path d="M 10.1996,293.4454 ZM 10.6197,292.9307 c 0.7563,-0.7563 1.3445,-1.3655 1.3445 -1.3655c 0.5882,-0.6092 0.9874,-1.1292 0.9874 -1.1292c 0.3992,-0.5200 0.6092,-0.9559 0.6092 -0.9559c 0.2101,-0.4359 0.2101,-0.8456 0.2101 -0.8456c 0.0000,-0.5777 -0.3151,-0.9454 -0.3151 -0.9454c -0.3151,-0.3676 -0.9559,-0.3676 -0.9559 -0.3676c -0.4202,-0.0000 -0.7773,0.2363 -0.7773 0.2363c -0.3571,0.2363 -0.6513,0.5725 -0.6513 0.5725l -0.4937,-0.4937 c 0.4202,-0.4622 0.8929,-0.7405 0.8929 -0.7405c 0.4727,-0.2784 1.1345,-0.2784 1.1345 -0.2784c 0.9349,0.0000 1.4706,0.5410 1.4706 0.5410c 0.5357,0.5410 0.5357,1.4338 0.5357 1.4338c 0.0000,0.4727 -0.2048,0.9506 -0.2048 0.9506c -0.2048,0.4779 -0.5672,0.9874 -0.5672 0.9874c -0.3624,0.5095 -0.8613,1.0609 -0.8613 1.0609c -0.4989,0.5515 -1.0977,1.1712 -1.0977 1.1712c 0.2731,-0.0210 0.5672,-0.0420 0.5672 -0.0420c 0.2941,-0.0210 0.5567,-0.0210 0.5567 -0.0210h 1.9433 v 0.7458 h -4.3277 v -0.5147 ZM 15.4202,293.4454 ZM 18.0357,293.5714 c -1.0189,-0.0000 -1.5861,-0.9034 -1.5861 -0.9034c -0.5672,-0.9034 -0.5672,-2.5945 -0.5672 -2.5945c 0.0000,-1.6912 0.5672,-2.5735 0.5672 -2.5735c 0.5672,-0.8824 1.5861,-0.8824 1.5861 -0.8824c 1.0084,0.0000 1.5756,0.8824 1.5756 0.8824c 0.5672,0.8824 0.5672,2.5735 0.5672 2.5735c 0.0000,1.6912 -0.5672,2.5945 -0.5672 2.5945c -0.5672,0.9034 -1.5756,0.9034 -1.5756 0.9034ZM 18.0357,293.5714 ZM 18.0357,292.8782 c 0.2941,0.0000 0.5305,-0.1628 0.5305 -0.1628c 0.2363,-0.1628 0.4097,-0.5042 0.4097 -0.5042c 0.1733,-0.3414 0.2679,-0.8718 0.2679 -0.8718c 0.0945,-0.5305 0.0945,-1.2658 0.0945 -1.2658c 0.0000,-0.7353 -0.0945,-1.2605 -0.0945 -1.2605c -0.0945,-0.5252 -0.2679,-0.8561 -0.2679 -0.8561c -0.1733,-0.3309 -0.4097,-0.4884 -0.4097 -0.4884c -0.2363,-0.1576 -0.5305,-0.1576 -0.5305 -0.1576c -0.2941,-0.0000 -0.5357,0.1576 -0.5357 0.1576c -0.2416,0.1576 -0.4149,0.4884 -0.4149 0.4884c -0.1733,0.3309 -0.2679,0.8561 -0.2679 0.8561c -0.0945,0.5252 -0.0945,1.2605 -0.0945 1.2605c 0.0000,1.4706 0.3624,2.1376 0.3624 2.1376c 0.3624,0.6670 0.9506,0.6670 0.9506 0.6670Z"/></g><g stroke-linecap="butt" fill="rgb(0,0,0)" stroke-miterlimit="10.0" stroke-width="0.0" fill-opacity="1.0" stroke-opacity="0.0" stroke-linejoin="bevel" stroke="rgb(0,0,0)"><path d="M 10.0945,163.4454 ZM 10.8088,162.0588 c 0.3046,0.3151 0.7090,0.5567 0.7090 0.5567c 0.4044,0.2416 1.0032,0.2416 1.0032 0.2416c 0.6092,0.0000 0.9979,-0.3309 0.9979 -0.3309c 0.3887,-0.3309 0.3887,-0.8981 0.3887 -0.8981c 0.0000,-0.2941 -0.1103,-0.5410 -0.1103 -0.5410c -0.1103,-0.2468 -0.3624,-0.4254 -0.3624 -0.4254c -0.2521,-0.1786 -0.6618,-0.2731 -0.6618 -0.2731c -0.4097,-0.0945 -1.0084,-0.0945 -1.0084 -0.0945v -0.6618 c 0.5357,0.0000 0.8981,-0.0945 0.8981 -0.0945c 0.3624,-0.0945 0.5882,-0.2626 0.5882 -0.2626c 0.2258,-0.1681 0.3204,-0.3992 0.3204 -0.3992c 0.0945,-0.2311 0.0945,-0.4937 0.0945 -0.4937c 0.0000,-0.4937 -0.3099,-0.7773 -0.3099 -0.7773c -0.3099,-0.2836 -0.8456,-0.2836 -0.8456 -0.2836c -0.4202,-0.0000 -0.7721,0.1891 -0.7721 0.1891c -0.3519,0.1891 -0.6565,0.4937 -0.6565 0.4937l -0.4622,-0.5462 c 0.3887,-0.3676 0.8561,-0.6040 0.8561 -0.6040c 0.4674,-0.2363 1.0662,-0.2363 1.0662 -0.2363c 0.4412,0.0000 0.8088,0.1155 0.8088 0.1155c 0.3676,0.1155 0.6355,0.3309 0.6355 0.3309c 0.2679,0.2153 0.4149,0.5305 0.4149 0.5305c 0.1471,0.3151 0.1471,0.7248 0.1471 0.7248c 0.0000,0.6092 -0.3361,0.9979 -0.3361 0.9979c -0.3361,0.3887 -0.8824,0.5987 -0.8824 0.5987v 0.0420 c 0.3046,0.0735 0.5672,0.2153 0.5672 0.2153c 0.2626,0.1418 0.4622,0.3571 0.4622 0.3571c 0.1996,0.2153 0.3099,0.4989 0.3099 0.4989c 0.1103,0.2836 0.1103,0.6303 0.1103 0.6303c 0.0000,0.4412 -0.1733,0.7983 -0.1733 0.7983c -0.1733,0.3571 -0.4727,0.6040 -0.4727 0.6040c -0.2994,0.2468 -0.6985,0.3782 -0.6985 0.3782c -0.3992,0.1313 -0.8613,0.1313 -0.8613 0.1313c -0.3992,-0.0000 -0.7300,-0.0788 -0.7300 -0.0788c -0.3309,-0.0788 -0.6040,-0.2101 -0.6040 -0.2101c -0.2731,-0.1313 -0.4884,-0.2994 -0.4884 -0.2994c -0.2153,-0.1681 -0.3834,-0.3571 -0.3834 -0.3571ZM 15.3151,163.4454 ZM 17.9307,163.5714 c -1.0189,-0.0000 -1.5861,-0.9034 -1.5861 -0.9034c -0.5672,-0.9034 -0.5672,-2.5945 -0.5672 -2.5945c 0.0000,-1.6912 0.5672,-2.5735 0.5672 -2.5735c 0.5672,-0.8824 1.5861,-0.8824 1.5861 -0.8824c 1.0084,0.0000 1.5756,0.8824 1.5756 0.8824c 0.5672,0.8824 0.5672,2.5735 0.5672 2.5735c 0.0000,1.6912 -0.5672,2.5945 -0.5672 2.5945c -0.5672,0.9034 -1.5756,0.9034 -1.5756 0.9034ZM 17.9307,163.5714 ZM 17.9307,162.8782 c 0.2941,0.0000 0.5305,-0.1628 0.5305 -0.1628c 0.2363,-0.1628 0.4097,-0.5042 0.4097 -0.5042c 0.1733,-0.3414 0.2679,-0.8718 0.2679 -0.8718c 0.0945,-0.5305 0.0945,-1.2658 0.0945 -1.2658c 0.0000,-0.7353 -0.0945,-1.2605 -0.0945 -1.2605c -0.0945,-0.5252 -0.2679,-0.8561 -0.2679 -0.8561c -0.1733,-0.3309 -0.4097,-0.4884 -0.4097 -0.4884c -0.2363,-0.1576 -0.5305,-0.1576 -0.5305 -0.1576c -0.2941,-0.0000 -0.5357,0.1576 -0.5357 0.1576c -0.2416,0.1576 -0.4149,0.4884 -0.4149 0.4884c -0.1733,0.3309 -0.2679,0.8561 -0.2679 0.8561c -0.0945,0.5252 -0.0945,1.2605 -0.0945 1.2605c 0.0000,1.4706 0.3624,2.1376 0.3624 2.1376c 0.3624,0.6670 0.9506,0.6670 0.9506 0.6670Z"/></g><g stroke-linecap="butt" fill="rgb(0,0,0)" stroke-miterlimit="10.0" stroke-width="0.0" fill-opacity="1.0" stroke-opacity="0.0" stroke-linejoin="bevel" stroke="rgb(0,0,0)"><path d="M 10.0000,33.4454 ZM 13.1933,30.9034 v -1.9433 c 0.0000,-0.2731 0.0158,-0.6460 0.0158 -0.6460c 0.0158,-0.3729 0.0368,-0.6460 0.0368 -0.6460h -0.0420 c -0.1261,0.2416 -0.2626,0.4727 -0.2626 0.4727c -0.1366,0.2311 -0.2836,0.4727 -0.2836 0.4727l -1.5651,2.2899 h 2.1008 ZM 13.1933,30.9034 ZM 14.9265,31.5966 h -0.9139 v 1.8487 h -0.8193 v -1.8487 h -3.0147 v -0.5672 l 2.8676,-4.2857 h 0.9664 v 4.1597 h 0.9139 v 0.6933 ZM 15.2206,33.4454 ZM 17.8361,33.5714 c -1.0189,-0.0000 -1.5861,-0.9034 -1.5861 -0.9034c -0.5672,-0.9034 -0.5672,-2.5945 -0.5672 -2.5945c 0.0000,-1.6912 0.5672,-2.5735 0.5672 -2.5735c 0.5672,-0.8824 1.5861,-0.8824 1.5861 -0.8824c 1.0084,0.0000 1.5756,0.8824 1.5756 0.8824c 0.5672,0.8824 0.5672,2.5735 0.5672 2.5735c 0.0000,1.6912 -0.5672,2.5945 -0.5672 2.5945c -0.5672,0.9034 -1.5756,0.9034 -1.5756 0.9034ZM 17.8361,33.5714 ZM 17.8361,32.8782 c 0.2941,0.0000 0.5305,-0.1628 0.5305 -0.1628c 0.2363,-0.1628 0.4097,-0.5042 0.4097 -0.5042c 0.1733,-0.3414 0.2679,-0.8718 0.2679 -0.8718c 0.0945,-0.5305 0.0945,-1.2658 0.0945 -1.2658c 0.0000,-0.7353 -0.0945,-1.2605 -0.0945 -1.2605c -0.0945,-0.5252 -0.2679,-0.8561 -0.2679 -0.8561c -0.1733,-0.3309 -0.4097,-0.4884 -0.4097 -0.4884c -0.2363,-0.1576 -0.5305,-0.1576 -0.5305 -0.1576c -0.2941,-0.0000 -0.5357,0.1576 -0.5357 0.1576c -0.2416,0.1576 -0.4149,0.4884 -0.4149 0.4884c -0.1733,0.3309 -0.2679,0.8561 -0.2679 0.8561c -0.0945,0.5252 -0.0945,1.2605 -0.0945 1.2605c 0.0000,1.4706 0.3624,2.1376 0.3624 2.1376c 0.3624,0.6670 0.9506,0.6670 0.9506 0.6670Z"/></g><g stroke-linecap="square" fill="rgb(0,0,0)" stroke-miterlimit="10.0" stroke-width="0.9999999999999997" fill-opacity="0.0" stroke-opacity="1.0" stroke-linejoin="miter" stroke="rgb(0,0,0)"><path d="M 29.8004,550.0000 h 747.2269 "/></g><g stroke-linecap="butt" fill="rgb(0,0,0)" stroke-miterlimit="10.0" stroke-width="0.0" fill-opacity="1.0" stroke-opacity="0.0" stroke-linejoin="bevel" stroke="rgb(0,0,0)"><path d="M 110.3887,570.0000 ZM 111.3340,563.1092 h 1.7227 c 1.5966,0.0000 2.4265,0.8824 2.4265 0.8824c 0.8298,0.8824 0.8298,2.5315 0.8298 2.5315c 0.0000,0.8193 -0.2101,1.4653 -0.2101 1.4653c -0.2101,0.6460 -0.6197,1.0924 -0.6197 1.0924c -0.4097,0.4464 -1.0084,0.6828 -1.0084 0.6828c -0.5987,0.2363 -1.3761,0.2363 -1.3761 0.2363h -1.7647 v -6.8908 ZM 111.3340,563.1092 ZM 112.9937,569.2857 c 1.2080,0.0000 1.8120,-0.7248 1.8120 -0.7248c 0.6040,-0.7248 0.6040,-2.0378 0.6040 -2.0378c 0.0000,-1.3130 -0.6040,-2.0063 -0.6040 -2.0063c -0.6040,-0.6933 -1.8120,-0.6933 -1.8120 -0.6933h -0.7878 v 5.4622 h 0.7878 ZM 116.8487,570.0000 ZM 117.4580,568.6765 c 0.0000,-0.8403 0.7511,-1.2868 0.7511 -1.2868c 0.7511,-0.4464 2.3897,-0.6250 2.3897 -0.6250c 0.0000,-0.2416 -0.0473,-0.4727 -0.0473 -0.4727c -0.0473,-0.2311 -0.1681,-0.4097 -0.1681 -0.4097c -0.1208,-0.1786 -0.3204,-0.2889 -0.3204 -0.2889c -0.1996,-0.1103 -0.5147,-0.1103 -0.5147 -0.1103c -0.4517,-0.0000 -0.8351,0.1681 -0.8351 0.1681c -0.3834,0.1681 -0.6880,0.3782 -0.6880 0.3782l -0.3466,-0.5987 c 0.3571,-0.2311 0.8718,-0.4464 0.8718 -0.4464c 0.5147,-0.2153 1.1345,-0.2153 1.1345 -0.2153c 0.9349,0.0000 1.3550,0.5725 1.3550 0.5725c 0.4202,0.5725 0.4202,1.5284 0.4202 1.5284v 3.1303 h -0.7143 l -0.0735,-0.6092 h -0.0210 c -0.3676,0.3046 -0.7931,0.5200 -0.7931 0.5200c -0.4254,0.2153 -0.8981,0.2153 -0.8981 0.2153c -0.6513,-0.0000 -1.0767,-0.3782 -1.0767 -0.3782c -0.4254,-0.3782 -0.4254,-1.0714 -0.4254 -1.0714ZM 117.4580,568.6765 ZM 118.3088,568.6134 c 0.0000,0.4412 0.2574,0.6303 0.2574 0.6303c 0.2574,0.1891 0.6355,0.1891 0.6355 0.1891c 0.3676,0.0000 0.6985,-0.1733 0.6985 -0.1733c 0.3309,-0.1733 0.6985,-0.5095 0.6985 -0.5095v -1.4181 c -0.6408,0.0840 -1.0819,0.1996 -1.0819 0.1996c -0.4412,0.1155 -0.7090,0.2731 -0.7090 0.2731c -0.2679,0.1576 -0.3834,0.3624 -0.3834 0.3624c -0.1155,0.2048 -0.1155,0.4464 -0.1155 0.4464ZM 122.2269,570.0000 ZM 122.7416,571.4076 l 0.1891,0.0473 c 0.0000,0.0000 0.1996,0.0263 0.1996 0.0263c 0.4412,0.0000 0.7195,-0.3099 0.7195 -0.3099c 0.2784,-0.3099 0.4359,-0.7826 0.4359 -0.7826l 0.1155,-0.3782 l -2.0483,-5.1155 h 0.8929 l 1.0399,2.8256 c 0.1155,0.3361 0.2468,0.7090 0.2468 0.7090c 0.1313,0.3729 0.2468,0.7300 0.2468 0.7300h 0.0420 c 0.1155,-0.3466 0.2206,-0.7248 0.2206 -0.7248c 0.1050,-0.3782 0.2101,-0.7143 0.2101 -0.7143l 0.9139,-2.8256 h 0.8403 l -1.9223,5.5252 c -0.1366,0.3782 -0.3046,0.7038 -0.3046 0.7038c -0.1681,0.3256 -0.3992,0.5620 -0.3992 0.5620c -0.2311,0.2363 -0.5252,0.3729 -0.5252 0.3729c -0.2941,0.1366 -0.6828,0.1366 -0.6828 0.1366c -0.1786,-0.0000 -0.3256,-0.0263 -0.3256 -0.0263c -0.1471,-0.0263 -0.2731,-0.0788 -0.2731 -0.0788l 0.1681,-0.6828 h 0.0000 ZM 127.1324,570.0000 ZM 129.7479,570.1261 c -1.0189,-0.0000 -1.5861,-0.9034 -1.5861 -0.9034c -0.5672,-0.9034 -0.5672,-2.5945 -0.5672 -2.5945c 0.0000,-1.6912 0.5672,-2.5735 0.5672 -2.5735c 0.5672,-0.8824 1.5861,-0.8824 1.5861 -0.8824c 1.0084,0.0000 1.5756,0.8824 1.5756 0.8824c 0.5672,0.8824 0.5672,2.5735 0.5672 2.5735c 0.0000,1.6912 -0.5672,2.5945 -0.5672 2.5945c -0.5672,0.9034 -1.5756,0.9034 -1.5756 0.9034ZM 129.7479,570.1261 ZM 129.7479,569.4328 c 0.2941,0.0000 0.5305,-0.1628 0.5305 -0.1628c 0.2363,-0.1628 0.4097,-0.5042 0.4097 -0.5042c 0.1733,-0.3414 0.2679,-0.8718 0.2679 -0.8718c 0.0945,-0.5305 0.0945,-1.2658 0.0945 -1.2658c 0.0000,-0.7353 -0.0945,-1.2605 -0.0945 -1.2605c -0.0945,-0.5252 -0.2679,-0.8561 -0.2679 -0.8561c -0.1733,-0.3309 -0.4097,-0.4884 -0.4097 -0.4884c -0.2363,-0.1576 -0.5305,-0.1576 -0.5305 -0.1576c -0.2941,-0.0000 -0.5357,0.1576 -0.5357 0.1576c -0.2416,0.1576 -0.4149,0.4884 -0.4149 0.4884c -0.1733,0.3309 -0.2679,0.8561 -0.2679 0.8561c -0.0945,0.5252 -0.0945,1.2605 -0.0945 1.2605c 0.0000,1.4706 0.3624,2.1376 0.3624 2.1376c 0.3624,0.6670 0.9506,0.6670 0.9506 0.6670ZM 132.3529,570.0000 ZM 133.1828,569.2857 h 1.5336 v -4.9370 h -1.2185 v -0.5567 c 0.4622,-0.0840 0.8036,-0.2048 0.8036 -0.2048c 0.3414,-0.1208 0.6145,-0.2889 0.6145 -0.2889h 0.6618 v 5.9874 h 1.3866 v 0.7143 h -3.7815 v -0.7143 Z"/></g><g stroke-linecap="butt" fill="rgb(0,0,0)" stroke-miterlimit="10.0" stroke-width="0.0" fill-opacity="1.0" stroke-opacity="0.0" stroke-linejoin="bevel" stroke="rgb(0,0,0)"><path d="M 297.1271,570.0000 ZM 298.0725,563.1092 h 1.7227 c 1.5966,0.0000 2.4265,0.8824 2.4265 0.8824c 0.8298,0.8824 0.8298,2.5315 0.8298 2.5315c 0.0000,0.8193 -0.2101,1.4653 -0.2101 1.4653c -0.2101,0.6460 -0.6197,1.0924 -0.6197 1.0924c -0.4097,0.4464 -1.0084,0.6828 -1.0084 0.6828c -0.5987,0.2363 -1.3761,0.2363 -1.3761 0.2363h -1.7647 v -6.8908 ZM 298.0725,563.1092 ZM 299.7321,569.2857 c 1.2080,0.0000 1.8120,-0.7248 1.8120 -0.7248c 0.6040,-0.7248 0.6040,-2.0378 0.6040 -2.0378c 0.0000,-1.3130 -0.6040,-2.0063 -0.6040 -2.0063c -0.6040,-0.6933 -1.8120,-0.6933 -1.8120 -0.6933h -0.7878 v 5.4622 h 0.7878 ZM 303.5872,570.0000 ZM 304.1964,568.6765 c 0.0000,-0.8403 0.7511,-1.2868 0.7511 -1.2868c 0.7511,-0.4464 2.3897,-0.6250 2.3897 -0.6250c 0.0000,-0.2416 -0.0473,-0.4727 -0.0473 -0.4727c -0.0473,-0.2311 -0.1681,-0.4097 -0.1681 -0.4097c -0.1208,-0.1786 -0.3204,-0.2889 -0.3204 -0.2889c -0.1996,-0.1103 -0.5147,-0.1103 -0.5147 -0.1103c -0.4517,-0.0000 -0.8351,0.1681 -0.8351 0.1681c -0.3834,0.1681 -0.6880,0.3782 -0.6880 0.3782l -0.3466,-0.5987 c 0.3571,-0.2311 0.8718,-0.4464 0.8718 -0.4464c 0.5147,-0.2153 1.1345,-0.2153 1.1345 -0.2153c 0.9349,0.0000 1.3550,0.5725 1.3550 0.5725c 0.4202,0.5725 0.4202,1.5284 0.4202 1.5284v 3.1303 h -0.7143 l -0.0735,-0.6092 h -0.0210 c -0.3676,0.3046 -0.7931,0.5200 -0.7931 0.5200c -0.4254,0.2153 -0.8981,0.2153 -0.8981 0.2153c -0.6513,-0.0000 -1.0767,-0.3782 -1.0767 -0.3782c -0.4254,-0.3782 -0.4254,-1.0714 -0.4254 -1.0714ZM 304.1964,568.6765 ZM 305.0473,568.6134 c 0.0000,0.4412 0.2574,0.6303 0.2574 0.6303c 0.2574,0.1891 0.6355,0.1891 0.6355 0.1891c 0.3676,0.0000 0.6985,-0.1733 0.6985 -0.1733c 0.3309,-0.1733 0.6985,-0.5095 0.6985 -0.5095v -1.4181 c -0.6408,0.0840 -1.0819,0.1996 -1.0819 0.1996c -0.4412,0.1155 -0.7090,0.2731 -0.7090 0.2731c -0.2679,0.1576 -0.3834,0.3624 -0.3834 0.3624c -0.1155,0.2048 -0.1155,0.4464 -0.1155 0.4464ZM 308.9653,570.0000 ZM 309.4800,571.4076 l 0.1891,0.0473 c 0.0000,0.0000 0.1996,0.0263 0.1996 0.0263c 0.4412,0.0000 0.7195,-0.3099 0.7195 -0.3099c 0.2784,-0.3099 0.4359,-0.7826 0.4359 -0.7826l 0.1155,-0.3782 l -2.0483,-5.1155 h 0.8929 l 1.0399,2.8256 c 0.1155,0.3361 0.2468,0.7090 0.2468 0.7090c 0.1313,0.3729 0.2468,0.7300 0.2468 0.7300h 0.0420 c 0.1155,-0.3466 0.2206,-0.7248 0.2206 -0.7248c 0.1050,-0.3782 0.2101,-0.7143 0.2101 -0.7143l 0.9139,-2.8256 h 0.8403 l -1.9223,5.5252 c -0.1366,0.3782 -0.3046,0.7038 -0.3046 0.7038c -0.1681,0.3256 -0.3992,0.5620 -0.3992 0.5620c -0.2311,0.2363 -0.5252,0.3729 -0.5252 0.3729c -0.2941,0.1366 -0.6828,0.1366 -0.6828 0.1366c -0.1786,-0.0000 -0.3256,-0.0263 -0.3256 -0.0263c -0.1471,-0.0263 -0.2731,-0.0788 -0.2731 -0.0788l 0.1681,-0.6828 h 0.0000 ZM 313.8708,570.0000 ZM 316.4863,570.1261 c -1.0189,-0.0000 -1.5861,-0.9034 -1.5861 -0.9034c -0.5672,-0.9034 -0.5672,-2.5945 -0.5672 -2.5945c 0.0000,-1.6912 0.5672,-2.5735 0.5672 -2.5735c 0.5672,-0.8824 1.5861,-0.8824 1.5861 -0.8824c 1.0084,0.0000 1.5756,0.8824 1.5756 0.8824c 0.5672,0.8824 0.5672,2.5735 0.5672 2.5735c 0.0000,1.6912 -0.5672,2.5945 -0.5672 2.5945c -0.5672,0.9034 -1.5756,0.9034 -1.5756 0.9034ZM 316.4863,570.1261 ZM 316.4863,569.4328 c 0.2941,0.0000 0.5305,-0.1628 0.5305 -0.1628c 0.2363,-0.1628 0.4097,-0.5042 0.4097 -0.5042c 0.1733,-0.3414 0.2679,-0.8718 0.2679 -0.8718c 0.0945,-0.5305 0.0945,-1.2658 0.0945 -1.2658c 0.0000,-0.7353 -0.0945,-1.2605 -0.0945 -1.2605c -0.0945,-0.5252 -0.2679,-0.8561 -0.2679 -0.8561c -0.1733,-0.3309 -0.4097,-0.4884 -0.4097 -0.4884c -0.2363,-0.1576 -0.5305,-0.1576 -0.5305 -0.1576c -0.2941,-0.0000 -0.5357,0.1576 -0.5357 0.1576c -0.2416,0.1576 -0.4149,0.4884 -0.4149 0.4884c -0.1733,0.3309 -0.2679,0.8561 -0.2679 0.8561c -0.0945,0.5252 -0.0945,1.2605 -0.0945 1.2605c 0.0000,1.4706 0.3624,2.1376 0.3624 2.1376c 0.3624,0.6670 0.9506,0.6670 0.9506 0.6670ZM 319.0914,570.0000 ZM 319.5116,569.4853 c 0.7563,-0.7563 1.3445,-1.3655 1.3445 -1.3655c 0.5882,-0.6092 0.9874,-1.1292 0.9874 -1.1292c 0.3992,-0.5200 0.6092,-0.9559 0.6092 -0.9559c 0.2101,-0.4359 0.2101,-0.8456 0.2101 -0.8456c 0.0000,-0.5777 -0.3151,-0.9454 -0.3151 -0.9454c -0.3151,-0.3676 -0.9559,-0.3676 -0.9559 -0.3676c -0.4202,-0.0000 -0.7773,0.2363 -0.7773 0.2363c -0.3571,0.2363 -0.6513,0.5725 -0.6513 0.5725l -0.4937,-0.4937 c 0.4202,-0.4622 0.8929,-0.7405 0.8929 -0.7405c 0.4727,-0.2784 1.1345,-0.2784 1.1345 -0.2784c 0.9349,0.0000 1.4706,0.5410 1.4706 0.5410c 0.5357,0.5410 0.5357,1.4338 0.5357 1.4338c 0.0000,0.4727 -0.2048,0.9506 -0.2048 0.9506c -0.2048,0.4779 -0.5672,0.9874 -0.5672 0.9874c -0.3624,0.5095 -0.8613,1.0609 -0.8613 1.0609c -0.4989,0.5515 -1.0977,1.1712 -1.0977 1.1712c 0.2731,-0.0210 0.5672,-0.0420 0.5672 -0.0420c 0.2941,-0.0210 0.5567,-0.0210 0.5567 -0.0210h 1.9433 v 0.7458 h -4.3277 v -0.5147 Z"/></g><g stroke-linecap="butt" fill="rgb(0,0,0)" stroke-miterlimit="10.0" stroke-width="0.0" fill-opacity="1.0" stroke-opacity="0.0" stroke-linejoin="bevel" stroke="rgb(0,0,0)"><path d="M 483.9653,570.0000 ZM 484.9107,563.1092 h 1.7227 c 1.5966,0.0000 2.4265,0.8824 2.4265 0.8824c 0.8298,0.8824 0.8298,2.5315 0.8298 2.5315c 0.0000,0.8193 -0.2101,1.4653 -0.2101 1.4653c -0.2101,0.6460 -0.6197,1.0924 -0.6197 1.0924c -0.4097,0.4464 -1.0084,0.6828 -1.0084 0.6828c -0.5987,0.2363 -1.3761,0.2363 -1.3761 0.2363h -1.7647 v -6.8908 ZM 484.9107,563.1092 ZM 486.5704,569.2857 c 1.2080,0.0000 1.8120,-0.7248 1.8120 -0.7248c 0.6040,-0.7248 0.6040,-2.0378 0.6040 -2.0378c 0.0000,-1.3130 -0.6040,-2.0063 -0.6040 -2.0063c -0.6040,-0.6933 -1.8120,-0.6933 -1.8120 -0.6933h -0.7878 v 5.4622 h 0.7878 ZM 490.4254,570.0000 ZM 491.0347,568.6765 c 0.0000,-0.8403 0.7511,-1.2868 0.7511 -1.2868c 0.7511,-0.4464 2.3897,-0.6250 2.3897 -0.6250c 0.0000,-0.2416 -0.0473,-0.4727 -0.0473 -0.4727c -0.0473,-0.2311 -0.1681,-0.4097 -0.1681 -0.4097c -0.1208,-0.1786 -0.3204,-0.2889 -0.3204 -0.2889c -0.1996,-0.1103 -0.5147,-0.1103 -0.5147 -0.1103c -0.4517,-0.0000 -0.8351,0.1681 -0.8351 0.1681c -0.3834,0.1681 -0.6880,0.3782 -0.6880 0.3782l -0.3466,-0.5987 c 0.3571,-0.2311 0.8718,-0.4464 0.8718 -0.4464c 0.5147,-0.2153 1.1345,-0.2153 1.1345 -0.2153c 0.9349,0.0000 1.3550,0.5725 1.3550 0.5725c 0.4202,0.5725 0.4202,1.5284 0.4202 1.5284v 3.1303 h -0.7143 l -0.0735,-0.6092 h -0.0210 c -0.3676,0.3046 -0.7931,0.5200 -0.7931 0.5200c -0.4254,0.2153 -0.8981,0.2153 -0.8981 0.2153c -0.6513,-0.0000 -1.0767,-0.3782 -1.0767 -0.3782c -0.4254,-0.3782 -0.4254,-1.0714 -0.4254 -1.0714ZM 491.0347,568.6765 ZM 491.8855,568.6134 c 0.0000,0.4412 0.2574,0.6303 0.2574 0.6303c 0.2574,0.1891 0.6355,0.1891 0.6355 0.1891c 0.3676,0.0000 0.6985,-0.1733 0.6985 -0.1733c 0.3309,-0.1733 0.6985,-0.5095 0.6985 -0.5095v -1.4181 c -0.6408,0.0840 -1.0819,0.1996 -1.0819 0.1996c -0.4412,0.1155 -0.7090,0.2731 -0.7090 0.2731c -0.2679,0.1576 -0.3834,0.3624 -0.3834 0.3624c -0.1155,0.2048 -0.1155,0.4464 -0.1155 0.4464ZM 495.8036,570.0000 ZM 496.3183,571.4076 l 0.1891,0.0473 c 0.0000,0.0000 0.1996,0.0263 0.1996 0.0263c 0.4412,0.0000 0.7195,-0.3099 0.7195 -0.3099c 0.2784,-0.3099 0.4359,-0.7826 0.4359 -0.7826l 0.1155,-0.3782 l -2.0483,-5.1155 h 0.8929 l 1.0399,2.8256 c 0.1155,0.3361 0.2468,0.7090 0.2468 0.7090c 0.1313,0.3729 0.2468,0.7300 0.2468 0.7300h 0.0420 c 0.1155,-0.3466 0.2206,-0.7248 0.2206 -0.7248c 0.1050,-0.3782 0.2101,-0.7143 0.2101 -0.7143l 0.9139,-2.8256 h 0.8403 l -1.9223,5.5252 c -0.1366,0.3782 -0.3046,0.7038 -0.3046 0.7038c -0.1681,0.3256 -0.3992,0.5620 -0.3992 0.5620c -0.2311,0.2363 -0.5252,0.3729 -0.5252 0.3729c -0.2941,0.1366 -0.6828,0.1366 -0.6828 0.1366c -0.1786,-0.0000 -0.3256,-0.0263 -0.3256 -0.0263c -0.1471,-0.0263 -0.2731,-0.0788 -0.2731 -0.0788l 0.1681,-0.6828 h 0.0000 ZM 500.7090,570.0000 ZM 503.3246,570.1261 c -1.0189,-0.0000 -1.5861,-0.9034 -1.5861 -0.9034c -0.5672,-0.9034 -0.5672,-2.5945 -0.5672 -2.5945c 0.0000,-1.6912 0.5672,-2.5735 0.5672 -2.5735c 0.5672,-0.8824 1.5861,-0.8824 1.5861 -0.8824c 1.0084,0.0000 1.5756,0.8824 1.5756 0.8824c 0.5672,0.8824 0.5672,2.5735 0.5672 2.5735c 0.0000,1.6912 -0.5672,2.5945 -0.5672 2.5945c -0.5672,0.9034 -1.5756,0.9034 -1.5756 0.9034ZM 503.3246,570.1261 ZM 503.3246,569.4328 c 0.2941,0.0000 0.5305,-0.1628 0.5305 -0.1628c 0.2363,-0.1628 0.4097,-0.5042 0.4097 -0.5042c 0.1733,-0.3414 0.2679,-0.8718 0.2679 -0.8718c 0.0945,-0.5305 0.0945,-1.2658 0.0945 -1.2658c 0.0000,-0.7353 -0.0945,-1.2605 -0.0945 -1.2605c -0.0945,-0.5252 -0.2679,-0.8561 -0.2679 -0.8561c -0.1733,-0.3309 -0.4097,-0.4884 -0.4097 -0.4884c -0.2363,-0.1576 -0.5305,-0.1576 -0.5305 -0.1576c -0.2941,-0.0000 -0.5357,0.1576 -0.5357 0.1576c -0.2416,0.1576 -0.4149,0.4884 -0.4149 0.4884c -0.1733,0.3309 -0.2679,0.8561 -0.2679 0.8561c -0.0945,0.5252 -0.0945,1.2605 -0.0945 1.2605c 0.0000,1.4706 0.3624,2.1376 0.3624 2.1376c 0.3624,0.6670 0.9506,0.6670 0.9506 0.6670ZM 505.9296,570.0000 ZM 506.6439,568.6134 c 0.3046,0.3151 0.7090,0.5567 0.7090 0.5567c 0.4044,0.2416 1.0032,0.2416 1.0032 0.2416c 0.6092,0.0000 0.9979,-0.3309 0.9979 -0.3309c 0.3887,-0.3309 0.3887,-0.8981 0.3887 -0.8981c 0.0000,-0.2941 -0.1103,-0.5410 -0.1103 -0.5410c -0.1103,-0.2468 -0.3624,-0.4254 -0.3624 -0.4254c -0.2521,-0.1786 -0.6618,-0.2731 -0.6618 -0.2731c -0.4097,-0.0945 -1.0084,-0.0945 -1.0084 -0.0945v -0.6618 c 0.5357,0.0000 0.8981,-0.0945 0.8981 -0.0945c 0.3624,-0.0945 0.5882,-0.2626 0.5882 -0.2626c 0.2258,-0.1681 0.3204,-0.3992 0.3204 -0.3992c 0.0945,-0.2311 0.0945,-0.4937 0.0945 -0.4937c 0.0000,-0.4937 -0.3099,-0.7773 -0.3099 -0.7773c -0.3099,-0.2836 -0.8456,-0.2836 -0.8456 -0.2836c -0.4202,-0.0000 -0.7721,0.1891 -0.7721 0.1891c -0.3519,0.1891 -0.6565,0.4937 -0.6565 0.4937l -0.4622,-0.5462 c 0.3887,-0.3676 0.8561,-0.6040 0.8561 -0.6040c 0.4674,-0.2363 1.0662,-0.2363 1.0662 -0.2363c 0.4412,0.0000 0.8088,0.1155 0.8088 0.1155c 0.3676,0.1155 0.6355,0.3309 0.6355 0.3309c 0.2679,0.2153 0.4149,0.5305 0.4149 0.5305c 0.1471,0.3151 0.1471,0.7248 0.1471 0.7248c 0.0000,0.6092 -0.3361,0.9979 -0.3361 0.9979c -0.3361,0.3887 -0.8824,0.5987 -0.8824 0.5987v 0.0420 c 0.3046,0.0735 0.5672,0.2153 0.5672 0.2153c 0.2626,0.1418 0.4622,0.3571 0.4622 0.3571c 0.1996,0.2153 0.3099,0.4989 0.3099 0.4989c 0.1103,0.2836 0.1103,0.6303 0.1103 0.6303c 0.0000,0.4412 -0.1733,0.7983 -0.1733 0.7983c -0.1733,0.3571 -0.4727,0.6040 -0.4727 0.6040c -0.2994,0.2468 -0.6985,0.3782 -0.6985 0.3782c -0.3992,0.1313 -0.8613,0.1313 -0.8613 0.1313c -0.3992,-0.0000 -0.7300,-0.0788 -0.7300 -0.0788c -0.3309,-0.0788 -0.6040,-0.2101 -0.6040 -0.2101c -0.2731,-0.1313 -0.4884,-0.2994 -0.4884 -0.2994c -0.2153,-0.1681 -0.3834,-0.3571 -0.3834 -0.3571Z"/></g><g stroke-linecap="butt" fill="rgb(0,0,0)" stroke-miterlimit="10.0" stroke-width="0.0" fill-opacity="1.0" stroke-opacity="0.0" stroke-linejoin="bevel" stroke="rgb(0,0,0)"><path d="M 670.6513,570.0000 ZM 671.5966,563.1092 h 1.7227 c 1.5966,0.0000 2.4265,0.8824 2.4265 0.8824c 0.8298,0.8824 0.8298,2.5315 0.8298 2.5315c 0.0000,0.8193 -0.2101,1.4653 -0.2101 1.4653c -0.2101,0.6460 -0.6197,1.0924 -0.6197 1.0924c -0.4097,0.4464 -1.0084,0.6828 -1.0084 0.6828c -0.5987,0.2363 -1.3761,0.2363 -1.3761 0.2363h -1.7647 v -6.8908 ZM 671.5966,563.1092 ZM 673.2563,569.2857 c 1.2080,0.0000 1.8120,-0.7248 1.8120 -0.7248c 0.6040,-0.7248 0.6040,-2.0378 0.6040 -2.0378c 0.0000,-1.3130 -0.6040,-2.0063 -0.6040 -2.0063c -0.6040,-0.6933 -1.8120,-0.6933 -1.8120 -0.6933h -0.7878 v 5.4622 h 0.7878 ZM 677.1113,570.0000 ZM 677.7206,568.6765 c 0.0000,-0.8403 0.7511,-1.2868 0.7511 -1.2868c 0.7511,-0.4464 2.3897,-0.6250 2.3897 -0.6250c 0.0000,-0.2416 -0.0473,-0.4727 -0.0473 -0.4727c -0.0473,-0.2311 -0.1681,-0.4097 -0.1681 -0.4097c -0.1208,-0.1786 -0.3204,-0.2889 -0.3204 -0.2889c -0.1996,-0.1103 -0.5147,-0.1103 -0.5147 -0.1103c -0.4517,-0.0000 -0.8351,0.1681 -0.8351 0.1681c -0.3834,0.1681 -0.6880,0.3782 -0.6880 0.3782l -0.3466,-0.5987 c 0.3571,-0.2311 0.8718,-0.4464 0.8718 -0.4464c 0.5147,-0.2153 1.1345,-0.2153 1.1345 -0.2153c 0.9349,0.0000 1.3550,0.5725 1.3550 0.5725c 0.4202,0.5725 0.4202,1.5284 0.4202 1.5284v 3.1303 h -0.7143 l -0.0735,-0.6092 h -0.0210 c -0.3676,0.3046 -0.7931,0.5200 -0.7931 0.5200c -0.4254,0.2153 -0.8981,0.2153 -0.8981 0.2153c -0.6513,-0.0000 -1.0767,-0.3782 -1.0767 -0.3782c -0.4254,-0.3782 -0.4254,-1.0714 -0.4254 -1.0714ZM 677.7206,568.6765 ZM 678.5714,568.6134 c 0.0000,0.4412 0.2574,0.6303 0.2574 0.6303c 0.2574,0.1891 0.6355,0.1891 0.6355 0.1891c 0.3676,0.0000 0.6985,-0.1733 0.6985 -0.1733c 0.3309,-0.1733 0.6985,-0.5095 0.6985 -0.5095v -1.4181 c -0.6408,0.0840 -1.0819,0.1996 -1.0819 0.1996c -0.4412,0.1155 -0.7090,0.2731 -0.7090 0.2731c -0.2679,0.1576 -0.3834,0.3624 -0.3834 0.3624c -0.1155,0.2048 -0.1155,0.4464 -0.1155 0.4464ZM 682.4895,570.0000 ZM 683.0042,571.4076 l 0.1891,0.0473 c 0.0000,0.0000 0.1996,0.0263 0.1996 0.0263c 0.4412,0.0000 0.7195,-0.3099 0.7195 -0.3099c 0.2784,-0.3099 0.4359,-0.7826 0.4359 -0.7826l 0.1155,-0.3782 l -2.0483,-5.1155 h 0.8929 l 1.0399,2.8256 c 0.1155,0.3361 0.2468,0.7090 0.2468 0.7090c 0.1313,0.3729 0.2468,0.7300 0.2468 0.7300h 0.0420 c 0.1155,-0.3466 0.2206,-0.7248 0.2206 -0.7248c 0.1050,-0.3782 0.2101,-0.7143 0.2101 -0.7143l 0.9139,-2.8256 h 0.8403 l -1.9223,5.5252 c -0.1366,0.3782 -0.3046,0.7038 -0.3046 0.7038c -0.1681,0.3256 -0.3992,0.5620 -0.3992 0.5620c -0.2311,0.2363 -0.5252,0.3729 -0.5252 0.3729c -0.2941,0.1366 -0.6828,0.1366 -0.6828 0.1366c -0.1786,-0.0000 -0.3256,-0.0263 -0.3256 -0.0263c -0.1471,-0.0263 -0.2731,-0.0788 -0.2731 -0.0788l 0.1681,-0.6828 h 0.0000 ZM 687.3950,570.0000 ZM 690.0105,570.1261 c -1.0189,-0.0000 -1.5861,-0.9034 -1.5861 -0.9034c -0.5672,-0.9034 -0.5672,-2.5945 -0.5672 -2.5945c 0.0000,-1.6912 0.5672,-2.5735 0.5672 -2.5735c 0.5672,-0.8824 1.5861,-0.8824 1.5861 -0.8824c 1.0084,0.0000 1.5756,0.8824 1.5756 0.8824c 0.5672,0.8824 0.5672,2.5735 0.5672 2.5735c 0.0000,1.6912 -0.5672,2.5945 -0.5672 2.5945c -0.5672,0.9034 -1.5756,0.9034 -1.5756 0.9034ZM 690.0105,570.1261 ZM 690.0105,569.4328 c 0.2941,0.0000 0.5305,-0.1628 0.5305 -0.1628c 0.2363,-0.1628 0.4097,-0.5042 0.4097 -0.5042c 0.1733,-0.3414 0.2679,-0.8718 0.2679 -0.8718c 0.0945,-0.5305 0.0945,-1.2658 0.0945 -1.2658c 0.0000,-0.7353 -0.0945,-1.2605 -0.0945 -1.2605c -0.0945,-0.5252 -0.2679,-0.8561 -0.2679 -0.8561c -0.1733,-0.3309 -0.4097,-0.4884 -0.4097 -0.4884c -0.2363,-0.1576 -0.5305,-0.1576 -0.5305 -0.1576c -0.2941,-0.0000 -0.5357,0.1576 -0.5357 0.1576c -0.2416,0.1576 -0.4149,0.4884 -0.4149 0.4884c -0.1733,0.3309 -0.2679,0.8561 -0.2679 0.8561c -0.0945,0.5252 -0.0945,1.2605 -0.0945 1.2605c 0.0000,1.4706 0.3624,2.1376 0.3624 2.1376c 0.3624,0.6670 0.9506,0.6670 0.9506 0.6670ZM 692.6155,570.0000 ZM 695.8088,567.4580 v -1.9433 c 0.0000,-0.2731 0.0158,-0.6460 0.0158 -0.6460c 0.0158,-0.3729 0.0368,-0.6460 0.0368 -0.6460h -0.0420 c -0.1261,0.2416 -0.2626,0.4727 -0.2626 0.4727c -0.1366,0.2311 -0.2836,0.4727 -0.2836 0.4727l -1.5651,2.2899 h 2.1008 ZM 695.8088,567.4580 ZM 697.5420,568.1513 h -0.9139 v 1.8487 h -0.8193 v -1.8487 h -3.0147 v -0.5672 l 2.8676,-4.2857 h 0.9664 v 4.1597 h 0.9139 v 0.6933 Z"/></g><g stroke-linecap="butt" fill="rgb(0,0,255)" stroke-miterlimit="10.0" stroke-width="0.0" fill-opacity="1.0" stroke-opacity="0.0" stroke-linejoin="bevel" stroke="rgb(0,0,0)"><path d="M 10.0000,580.0000 v 10.0000 h 20.0000 v -10.0000 Z"/></g><g stroke-linecap="butt" fill="rgb(0,0,0)" stroke-miterlimit="10.0" stroke-width="0.0" fill-opacity="1.0" stroke-opacity="0.0" stroke-linejoin="bevel" stroke="rgb(0,0,0)"><path d="M 35.0735,586.6071 ZM 37.4475,580.4517 h -2.0798 v -0.7353 h 5.0420 v 0.7353 h -2.0798 v 6.1555 h -0.8824 v -6.1555 ZM 40.7038,586.6071 ZM 42.0063,580.4517 c -0.2521,-0.0000 -0.4254,-0.1576 -0.4254 -0.1576c -0.1733,-0.1576 -0.1733,-0.3992 -0.1733 -0.3992c 0.0000,-0.2521 0.1733,-0.4044 0.1733 -0.4044c 0.1733,-0.1523 0.4254,-0.1523 0.4254 -0.1523c 0.2521,0.0000 0.4254,0.1523 0.4254 0.1523c 0.1733,0.1523 0.1733,0.4044 0.1733 0.4044c 0.0000,0.2416 -0.1733,0.3992 -0.1733 0.3992c -0.1733,0.1576 -0.4254,0.1576 -0.4254 0.1576ZM 42.0063,580.4517 ZM 41.5651,581.5021 h 0.8613 v 5.1050 h -0.8613 v -5.1050 ZM 43.2878,586.6071 ZM 44.1492,581.5021 h 0.7143 l 0.0735,0.7353 h 0.0315 c 0.3361,-0.3676 0.7300,-0.6145 0.7300 -0.6145c 0.3939,-0.2468 0.8561,-0.2468 0.8561 -0.2468c 0.5882,0.0000 0.9191,0.2574 0.9191 0.2574c 0.3309,0.2574 0.4884,0.7195 0.4884 0.7195c 0.3992,-0.4412 0.8036,-0.7090 0.8036 -0.7090c 0.4044,-0.2679 0.8771,-0.2679 0.8771 -0.2679c 0.7878,0.0000 1.1712,0.5042 1.1712 0.5042c 0.3834,0.5042 0.3834,1.4916 0.3834 1.4916v 3.2353 h -0.8613 v -3.1197 c 0.0000,-0.7248 -0.2311,-1.0452 -0.2311 -1.0452c -0.2311,-0.3204 -0.7143,-0.3204 -0.7143 -0.3204c -0.5777,-0.0000 -1.2815,0.7878 -1.2815 0.7878v 3.6975 h -0.8613 v -3.1197 c 0.0000,-0.7248 -0.2311,-1.0452 -0.2311 -1.0452c -0.2311,-0.3204 -0.7248,-0.3204 -0.7248 -0.3204c -0.5777,-0.0000 -1.2815,0.7878 -1.2815 0.7878v 3.6975 h -0.8613 v -5.1050 ZM 51.9958,586.6071 ZM 52.4790,584.0651 c 0.0000,-0.6303 0.1943,-1.1292 0.1943 -1.1292c 0.1943,-0.4989 0.5147,-0.8456 0.5147 -0.8456c 0.3204,-0.3466 0.7300,-0.5305 0.7300 -0.5305c 0.4097,-0.1838 0.8508,-0.1838 0.8508 -0.1838c 0.4832,0.0000 0.8666,0.1681 0.8666 0.1681c 0.3834,0.1681 0.6408,0.4832 0.6408 0.4832c 0.2574,0.3151 0.3939,0.7563 0.3939 0.7563c 0.1366,0.4412 0.1366,0.9874 0.1366 0.9874c 0.0000,0.2836 -0.0315,0.4727 -0.0315 0.4727h -3.4454 c 0.0525,0.8298 0.5095,1.3130 0.5095 1.3130c 0.4569,0.4832 1.1922,0.4832 1.1922 0.4832c 0.3676,0.0000 0.6775,-0.1103 0.6775 -0.1103c 0.3099,-0.1103 0.5935,-0.2889 0.5935 -0.2889l 0.3046,0.5672 c -0.3361,0.2101 -0.7458,0.3676 -0.7458 0.3676c -0.4097,0.1576 -0.9349,0.1576 -0.9349 0.1576c -0.5147,-0.0000 -0.9611,-0.1838 -0.9611 -0.1838c -0.4464,-0.1838 -0.7773,-0.5252 -0.7773 -0.5252c -0.3309,-0.3414 -0.5200,-0.8351 -0.5200 -0.8351c -0.1891,-0.4937 -0.1891,-1.1239 -0.1891 -1.1239ZM 52.4790,584.0651 ZM 56.0504,583.6765 c 0.0000,-0.7878 -0.3309,-1.2027 -0.3309 -1.2027c -0.3309,-0.4149 -0.9296,-0.4149 -0.9296 -0.4149c -0.2731,-0.0000 -0.5200,0.1103 -0.5200 0.1103c -0.2468,0.1103 -0.4464,0.3151 -0.4464 0.3151c -0.1996,0.2048 -0.3309,0.5042 -0.3309 0.5042c -0.1313,0.2994 -0.1733,0.6880 -0.1733 0.6880h 2.7311 ZM 59.3277,586.6071 ZM 59.8109,584.0651 c 0.0000,-0.6303 0.1943,-1.1292 0.1943 -1.1292c 0.1943,-0.4989 0.5147,-0.8456 0.5147 -0.8456c 0.3204,-0.3466 0.7300,-0.5305 0.7300 -0.5305c 0.4097,-0.1838 0.8508,-0.1838 0.8508 -0.1838c 0.4832,0.0000 0.8666,0.1681 0.8666 0.1681c 0.3834,0.1681 0.6408,0.4832 0.6408 0.4832c 0.2574,0.3151 0.3939,0.7563 0.3939 0.7563c 0.1366,0.4412 0.1366,0.9874 0.1366 0.9874c 0.0000,0.2836 -0.0315,0.4727 -0.0315 0.4727h -3.4454 c 0.0525,0.8298 0.5095,1.3130 0.5095 1.3130c 0.4569,0.4832 1.1922,0.4832 1.1922 0.4832c 0.3676,0.0000 0.6775,-0.1103 0.6775 -0.1103c 0.3099,-0.1103 0.5935,-0.2889 0.5935 -0.2889l 0.3046,0.5672 c -0.3361,0.2101 -0.7458,0.3676 -0.7458 0.3676c -0.4097,0.1576 -0.9349,0.1576 -0.9349 0.1576c -0.5147,-0.0000 -0.9611,-0.1838 -0.9611 -0.1838c -0.4464,-0.1838 -0.7773,-0.5252 -0.7773 -0.5252c -0.3309,-0.3414 -0.5200,-0.8351 -0.5200 -0.8351c -0.1891,-0.4937 -0.1891,-1.1239 -0.1891 -1.1239ZM 59.8109,584.0651 ZM 63.3824,583.6765 c 0.0000,-0.7878 -0.3309,-1.2027 -0.3309 -1.2027c -0.3309,-0.4149 -0.9296,-0.4149 -0.9296 -0.4149c -0.2731,-0.0000 -0.5200,0.1103 -0.5200 0.1103c -0.2468,0.1103 -0.4464,0.3151 -0.4464 0.3151c -0.1996,0.2048 -0.3309,0.5042 -0.3309 0.5042c -0.1313,0.2994 -0.1733,0.6880 -0.1733 0.6880h 2.7311 ZM 64.5378,586.6071 ZM 65.3992,579.1282 h 0.8613 v 6.5126 c 0.0000,0.2101 0.0735,0.2941 0.0735 0.2941c 0.0735,0.0840 0.1681,0.0840 0.1681 0.0840h 0.0788 c 0.0000,0.0000 0.1103,-0.0210 0.1103 -0.0210l 0.1155,0.6513 c -0.0840,0.0420 -0.1996,0.0630 -0.1996 0.0630c -0.1155,0.0210 -0.2941,0.0210 -0.2941 0.0210c -0.4937,-0.0000 -0.7038,-0.2941 -0.7038 -0.2941c -0.2101,-0.2941 -0.2101,-0.8613 -0.2101 -0.8613v -6.4496 ZM 67.2164,586.6071 ZM 67.8256,585.2836 c 0.0000,-0.8403 0.7511,-1.2868 0.7511 -1.2868c 0.7511,-0.4464 2.3897,-0.6250 2.3897 -0.6250c 0.0000,-0.2416 -0.0473,-0.4727 -0.0473 -0.4727c -0.0473,-0.2311 -0.1681,-0.4097 -0.1681 -0.4097c -0.1208,-0.1786 -0.3204,-0.2889 -0.3204 -0.2889c -0.1996,-0.1103 -0.5147,-0.1103 -0.5147 -0.1103c -0.4517,-0.0000 -0.8351,0.1681 -0.8351 0.1681c -0.3834,0.1681 -0.6880,0.3782 -0.6880 0.3782l -0.3466,-0.5987 c 0.3571,-0.2311 0.8718,-0.4464 0.8718 -0.4464c 0.5147,-0.2153 1.1345,-0.2153 1.1345 -0.2153c 0.9349,0.0000 1.3550,0.5725 1.3550 0.5725c 0.4202,0.5725 0.4202,1.5284 0.4202 1.5284v 3.1303 h -0.7143 l -0.0735,-0.6092 h -0.0210 c -0.3676,0.3046 -0.7931,0.5200 -0.7931 0.5200c -0.4254,0.2153 -0.8981,0.2153 -0.8981 0.2153c -0.6513,-0.0000 -1.0767,-0.3782 -1.0767 -0.3782c -0.4254,-0.3782 -0.4254,-1.0714 -0.4254 -1.0714ZM 67.8256,585.2836 ZM 68.6765,585.2206 c 0.0000,0.4412 0.2574,0.6303 0.2574 0.6303c 0.2574,0.1891 0.6355,0.1891 0.6355 0.1891c 0.3676,0.0000 0.6985,-0.1733 0.6985 -0.1733c 0.3309,-0.1733 0.6985,-0.5095 0.6985 -0.5095v -1.4181 c -0.6408,0.0840 -1.0819,0.1996 -1.0819 0.1996c -0.4412,0.1155 -0.7090,0.2731 -0.7090 0.2731c -0.2679,0.1576 -0.3834,0.3624 -0.3834 0.3624c -0.1155,0.2048 -0.1155,0.4464 -0.1155 0.4464ZM 72.5945,586.6071 ZM 74.3172,587.0378 v 1.7227 h -0.8613 v -7.2584 h 0.7143 l 0.0735,0.5882 h 0.0315 c 0.3466,-0.2941 0.7616,-0.5042 0.7616 -0.5042c 0.4149,-0.2101 0.8666,-0.2101 0.8666 -0.2101c 0.4937,0.0000 0.8718,0.1838 0.8718 0.1838c 0.3782,0.1838 0.6303,0.5252 0.6303 0.5252c 0.2521,0.3414 0.3834,0.8193 0.3834 0.8193c 0.1313,0.4779 0.1313,1.0767 0.1313 1.0767c 0.0000,0.6513 -0.1786,1.1607 -0.1786 1.1607c -0.1786,0.5095 -0.4832,0.8666 -0.4832 0.8666c -0.3046,0.3571 -0.7038,0.5410 -0.7038 0.5410c -0.3992,0.1838 -0.8403,0.1838 -0.8403 0.1838c -0.3571,-0.0000 -0.7090,-0.1576 -0.7090 -0.1576c -0.3519,-0.1576 -0.7090,-0.4307 -0.7090 -0.4307ZM 74.3172,587.0378 ZM 74.3172,585.4727 c 0.3466,0.2941 0.6723,0.4149 0.6723 0.4149c 0.3256,0.1208 0.5777,0.1208 0.5777 0.1208c 0.3151,0.0000 0.5830,-0.1418 0.5830 -0.1418c 0.2679,-0.1418 0.4622,-0.3992 0.4622 -0.3992c 0.1943,-0.2574 0.3046,-0.6355 0.3046 -0.6355c 0.1103,-0.3782 0.1103,-0.8508 0.1103 -0.8508c 0.0000,-0.4202 -0.0735,-0.7668 -0.0735 -0.7668c -0.0735,-0.3466 -0.2363,-0.5935 -0.2363 -0.5935c -0.1628,-0.2468 -0.4202,-0.3834 -0.4202 -0.3834c -0.2574,-0.1366 -0.6145,-0.1366 -0.6145 -0.1366c -0.3256,-0.0000 -0.6565,0.1786 -0.6565 0.1786c -0.3309,0.1786 -0.7090,0.5147 -0.7090 0.5147v 2.6786 ZM 78.4244,586.6071 ZM 79.1492,585.4517 c 0.3361,0.2731 0.6880,0.4412 0.6880 0.4412c 0.3519,0.1681 0.8141,0.1681 0.8141 0.1681c 0.5042,0.0000 0.7563,-0.2311 0.7563 -0.2311c 0.2521,-0.2311 0.2521,-0.5672 0.2521 -0.5672c 0.0000,-0.1996 -0.1050,-0.3466 -0.1050 -0.3466c -0.1050,-0.1471 -0.2679,-0.2574 -0.2679 -0.2574c -0.1628,-0.1103 -0.3729,-0.1943 -0.3729 -0.1943l -0.4202,-0.1681 c -0.2731,-0.0945 -0.5462,-0.2153 -0.5462 -0.2153c -0.2731,-0.1208 -0.4884,-0.2941 -0.4884 -0.2941c -0.2153,-0.1733 -0.3519,-0.4044 -0.3519 -0.4044c -0.1366,-0.2311 -0.1366,-0.5567 -0.1366 -0.5567c 0.0000,-0.3046 0.1208,-0.5725 0.1208 -0.5725c 0.1208,-0.2679 0.3466,-0.4622 0.3466 -0.4622c 0.2258,-0.1943 0.5515,-0.3046 0.5515 -0.3046c 0.3256,-0.1103 0.7353,-0.1103 0.7353 -0.1103c 0.4832,0.0000 0.8876,0.1681 0.8876 0.1681c 0.4044,0.1681 0.6985,0.4097 0.6985 0.4097l -0.4097,0.5462 c -0.2626,-0.1996 -0.5462,-0.3256 -0.5462 -0.3256c -0.2836,-0.1261 -0.6197,-0.1261 -0.6197 -0.1261c -0.4832,-0.0000 -0.7090,0.2206 -0.7090 0.2206c -0.2258,0.2206 -0.2258,0.5147 -0.2258 0.5147c 0.0000,0.1786 0.0945,0.3099 0.0945 0.3099c 0.0945,0.1313 0.2521,0.2311 0.2521 0.2311c 0.1576,0.0998 0.3624,0.1786 0.3624 0.1786c 0.2048,0.0788 0.4254,0.1628 0.4254 0.1628c 0.2731,0.1050 0.5515,0.2206 0.5515 0.2206c 0.2784,0.1155 0.4989,0.2889 0.4989 0.2889c 0.2206,0.1733 0.3624,0.4254 0.3624 0.4254c 0.1418,0.2521 0.1418,0.6092 0.1418 0.6092c 0.0000,0.3151 -0.1208,0.5882 -0.1208 0.5882c -0.1208,0.2731 -0.3571,0.4832 -0.3571 0.4832c -0.2363,0.2101 -0.5882,0.3309 -0.5882 0.3309c -0.3519,0.1208 -0.8036,0.1208 -0.8036 0.1208c -0.5462,-0.0000 -1.0399,-0.1996 -1.0399 -0.1996c -0.4937,-0.1996 -0.8613,-0.5042 -0.8613 -0.5042ZM 82.8256,586.6071 ZM 83.3088,584.0651 c 0.0000,-0.6303 0.1943,-1.1292 0.1943 -1.1292c 0.1943,-0.4989 0.5147,-0.8456 0.5147 -0.8456c 0.3204,-0.3466 0.7300,-0.5305 0.7300 -0.5305c 0.4097,-0.1838 0.8508,-0.1838 0.8508 -0.1838c 0.4832,0.0000 0.8666,0.1681 0.8666 0.1681c 0.3834,0.1681 0.6408,0.4832 0.6408 0.4832c 0.2574,0.3151 0.3939,0.7563 0.3939 0.7563c 0.1366,0.4412 0.1366,0.9874 0.1366 0.9874c 0.0000,0.2836 -0.0315,0.4727 -0.0315 0.4727h -3.4454 c 0.0525,0.8298 0.5095,1.3130 0.5095 1.3130c 0.4569,0.4832 1.1922,0.4832 1.1922 0.4832c 0.3676,0.0000 0.6775,-0.1103 0.6775 -0.1103c 0.3099,-0.1103 0.5935,-0.2889 0.5935 -0.2889l 0.3046,0.5672 c -0.3361,0.2101 -0.7458,0.3676 -0.7458 0.3676c -0.4097,0.1576 -0.9349,0.1576 -0.9349 0.1576c -0.5147,-0.0000 -0.9611,-0.1838 -0.9611 -0.1838c -0.4464,-0.1838 -0.7773,-0.5252 -0.7773 -0.5252c -0.3309,-0.3414 -0.5200,-0.8351 -0.5200 -0.8351c -0.1891,-0.4937 -0.1891,-1.1239 -0.1891 -1.1239ZM 83.3088,584.0651 ZM 86.8803,583.6765 c 0.0000,-0.7878 -0.3309,-1.2027 -0.3309 -1.2027c -0.3309,-0.4149 -0.9296,-0.4149 -0.9296 -0.4149c -0.2731,-0.0000 -0.5200,0.1103 -0.5200 0.1103c -0.2468,0.1103 -0.4464,0.3151 -0.4464 0.3151c -0.1996,0.2048 -0.3309,0.5042 -0.3309 0.5042c -0.1313,0.2994 -0.1733,0.6880 -0.1733 0.6880h 2.7311 ZM 88.0357,586.6071 ZM 88.5294,584.0651 c 0.0000,-0.6197 0.1838,-1.1187 0.1838 -1.1187c 0.1838,-0.4989 0.4884,-0.8456 0.4884 -0.8456c 0.3046,-0.3466 0.7038,-0.5357 0.7038 -0.5357c 0.3992,-0.1891 0.8403,-0.1891 0.8403 -0.1891c 0.4412,0.0000 0.7668,0.1576 0.7668 0.1576c 0.3256,0.1576 0.6618,0.4307 0.6618 0.4307l -0.0420,-0.8718 v -1.9643 h 0.8718 v 7.4790 h -0.7143 l -0.0735,-0.5987 h -0.0315 c -0.3046,0.2941 -0.6985,0.5095 -0.6985 0.5095c -0.3939,0.2153 -0.8456,0.2153 -0.8456 0.2153c -0.9664,-0.0000 -1.5389,-0.6933 -1.5389 -0.6933c -0.5725,-0.6933 -0.5725,-1.9748 -0.5725 -1.9748ZM 88.5294,584.0651 ZM 89.4223,584.0546 c 0.0000,0.9244 0.3676,1.4391 0.3676 1.4391c 0.3676,0.5147 1.0399,0.5147 1.0399 0.5147c 0.3571,0.0000 0.6723,-0.1733 0.6723 -0.1733c 0.3151,-0.1733 0.6303,-0.5305 0.6303 -0.5305v -2.6681 c -0.3256,-0.2941 -0.6250,-0.4149 -0.6250 -0.4149c -0.2994,-0.1208 -0.6145,-0.1208 -0.6145 -0.1208c -0.3046,-0.0000 -0.5725,0.1418 -0.5725 0.1418c -0.2679,0.1418 -0.4674,0.3992 -0.4674 0.3992c -0.1996,0.2574 -0.3151,0.6145 -0.3151 0.6145c -0.1155,0.3571 -0.1155,0.7983 -0.1155 0.7983ZM 95.9874,586.6071 ZM 98.2353,588.4559 c -0.6513,-1.0504 -1.0189,-2.2164 -1.0189 -2.2164c -0.3676,-1.1660 -0.3676,-2.5525 -0.3676 -2.5525c 0.0000,-1.3866 0.3676,-2.5473 0.3676 -2.5473c 0.3676,-1.1607 1.0189,-2.2216 1.0189 -2.2216l 0.5357,0.2521 c -0.6092,1.0084 -0.9086,2.1586 -0.9086 2.1586c -0.2994,1.1502 -0.2994,2.3582 -0.2994 2.3582c 0.0000,1.2080 0.2994,2.3582 0.2994 2.3582c 0.2994,1.1502 0.9086,2.1586 0.9086 2.1586l -0.5357,0.2521 h 0.0000 ZM 99.1702,586.6071 ZM 100.0315,581.5021 h 0.7143 l 0.0735,0.7353 h 0.0315 c 0.3361,-0.3676 0.7300,-0.6145 0.7300 -0.6145c 0.3939,-0.2468 0.8561,-0.2468 0.8561 -0.2468c 0.5882,0.0000 0.9191,0.2574 0.9191 0.2574c 0.3309,0.2574 0.4884,0.7195 0.4884 0.7195c 0.3992,-0.4412 0.8036,-0.7090 0.8036 -0.7090c 0.4044,-0.2679 0.8771,-0.2679 0.8771 -0.2679c 0.7878,0.0000 1.1712,0.5042 1.1712 0.5042c 0.3834,0.5042 0.3834,1.4916 0.3834 1.4916v 3.2353 h -0.8613 v -3.1197 c 0.0000,-0.7248 -0.2311,-1.0452 -0.2311 -1.0452c -0.2311,-0.3204 -0.7143,-0.3204 -0.7143 -0.3204c -0.5777,-0.0000 -1.2815,0.7878 -1.2815 0.7878v 3.6975 h -0.8613 v -3.1197 c 0.0000,-0.7248 -0.2311,-1.0452 -0.2311 -1.0452c -0.2311,-0.3204 -0.7248,-0.3204 -0.7248 -0.3204c -0.5777,-0.0000 -1.2815,0.7878 -1.2815 0.7878v 3.6975 h -0.8613 v -5.1050 ZM 107.8782,586.6071 ZM 108.6029,585.4517 c 0.3361,0.2731 0.6880,0.4412 0.6880 0.4412c 0.3519,0.1681 0.8141,0.1681 0.8141 0.1681c 0.5042,0.0000 0.7563,-0.2311 0.7563 -0.2311c 0.2521,-0.2311 0.2521,-0.5672 0.2521 -0.5672c 0.0000,-0.1996 -0.1050,-0.3466 -0.1050 -0.3466c -0.1050,-0.1471 -0.2679,-0.2574 -0.2679 -0.2574c -0.1628,-0.1103 -0.3729,-0.1943 -0.3729 -0.1943l -0.4202,-0.1681 c -0.2731,-0.0945 -0.5462,-0.2153 -0.5462 -0.2153c -0.2731,-0.1208 -0.4884,-0.2941 -0.4884 -0.2941c -0.2153,-0.1733 -0.3519,-0.4044 -0.3519 -0.4044c -0.1366,-0.2311 -0.1366,-0.5567 -0.1366 -0.5567c 0.0000,-0.3046 0.1208,-0.5725 0.1208 -0.5725c 0.1208,-0.2679 0.3466,-0.4622 0.3466 -0.4622c 0.2258,-0.1943 0.5515,-0.3046 0.5515 -0.3046c 0.3256,-0.1103 0.7353,-0.1103 0.7353 -0.1103c 0.4832,0.0000 0.8876,0.1681 0.8876 0.1681c 0.4044,0.1681 0.6985,0.4097 0.6985 0.4097l -0.4097,0.5462 c -0.2626,-0.1996 -0.5462,-0.3256 -0.5462 -0.3256c -0.2836,-0.1261 -0.6197,-0.1261 -0.6197 -0.1261c -0.4832,-0.0000 -0.7090,0.2206 -0.7090 0.2206c -0.2258,0.2206 -0.2258,0.5147 -0.2258 0.5147c 0.0000,0.1786 0.0945,0.3099 0.0945 0.3099c 0.0945,0.1313 0.2521,0.2311 0.2521 0.2311c 0.1576,0.0998 0.3624,0.1786 0.3624 0.1786c 0.2048,0.0788 0.4254,0.1628 0.4254 0.1628c 0.2731,0.1050 0.5515,0.2206 0.5515 0.2206c 0.2784,0.1155 0.4989,0.2889 0.4989 0.2889c 0.2206,0.1733 0.3624,0.4254 0.3624 0.4254c 0.1418,0.2521 0.1418,0.6092 0.1418 0.6092c 0.0000,0.3151 -0.1208,0.5882 -0.1208 0.5882c -0.1208,0.2731 -0.3571,0.4832 -0.3571 0.4832c -0.2363,0.2101 -0.5882,0.3309 -0.5882 0.3309c -0.3519,0.1208 -0.8036,0.1208 -0.8036 0.1208c -0.5462,-0.0000 -1.0399,-0.1996 -1.0399 -0.1996c -0.4937,-0.1996 -0.8613,-0.5042 -0.8613 -0.5042ZM 112.2794,586.6071 ZM 112.6786,588.2038 c 0.6092,-1.0084 0.9086,-2.1586 0.9086 -2.1586c 0.2994,-1.1502 0.2994,-2.3582 0.2994 -2.3582c 0.0000,-1.2080 -0.2994,-2.3582 -0.2994 -2.3582c -0.2994,-1.1502 -0.9086,-2.1586 -0.9086 -2.1586l 0.5357,-0.2521 c 0.6513,1.0609 1.0189,2.2216 1.0189 2.2216c 0.3676,1.1607 0.3676,2.5473 0.3676 2.5473c 0.0000,1.3866 -0.3676,2.5525 -0.3676 2.5525c -0.3676,1.1660 -1.0189,2.2164 -1.0189 2.2164l -0.5357,-0.2521 h 0.0000 Z"/></g></svg>